<svg xmlns="http://www.w3.org/2000/svg" xmlns:v="https://vecta.io/nano">
  <defs>
    <g id="icon-1">
      <path d="M114.704 114.469v-12.048m0 12.048l-10.893 5.955m10.893-5.955l9.89 5.921m-9.89 41.861l-31.763 18.278m31.763-18.278L145.245 181m-30.541-18.749v-11.844m0 11.844l30.541-17.63V181m-30.541-18.749l-31.763-18.097v36.375m0 0l-9.773-5.659v-36.32L41.5 120.39v-12.251m41.441-12.757l-9.773-5.395m9.773 5.395v36.755m0-36.755l31.763-18.608M73.168 89.987V53.659m0 36.328v36.408L41.5 108.139m103.745-11.705l10.587-6.102m-10.587 6.102v35.703m0-35.703l-30.541-19.66M145.245 181l10.587-6.13v-36.32l31.668-18.16v-12.251m-31.668-17.807v-37.39m0 37.39v36.055l31.668-18.248m-72.796 42.268l30.541-18.27m-30.541 18.27l-31.763-18.27M187.5 108.139l-63.594-36.655 31.926-18.542M41.5 108.139l64.126-36.756-32.458-17.724m0 0L82.941 48l31.763 18.18 31.535-18.075 9.593 4.838m-10.587 79.195l-9.773-5.375m-52.531 5.375l5.294-2.915 5.294-2.808m21.175-36.041l20.768 11.748m-20.768-11.748L93.529 101.72m21.175-11.347v-13.6m20.768 25.347l-10.878 6.299m10.878-6.299v24.641m0 0l-20.768 11.802m0 0l-21.175-12.15m21.175 12.15v-12.252m-21.175.102V101.72m21.175.701l-10.69 5.571m10.69-5.571l9.89 5.999m-20.58-.428l-.203 12.432m.203-12.432l-10.485-6.272m10.282 18.704l10.893 5.888m0 0l9.89-5.922m0 0v-11.97" />
    </g>
    <g id="icon-2">
      <path d="M187.5 72.2502L114.5 30.0002L41.5002 72.2502M187.5 72.2502V156.75L114.5 199M187.5 72.2502L114.5 113.23M114.5 199L41.5002 156.75V72.2502M114.5 199V113.23M41.5002 72.2502L114.5 113.23M57.4596 147.856V101.05L70.1353 108.544M57.4596 147.856L99.6062 173.904V156.75M57.4596 147.856L70.1353 140.867M174.709 147.856V99.2521L158.231 108.544M174.709 147.856L129.077 173.904V155.949M174.709 147.856L158.231 140.867M158.231 108.544L129.077 124.983V155.949M158.231 108.544V140.867M158.231 140.867L129.077 155.949M70.1353 140.867V108.544M70.1353 140.867L99.6062 156.75M70.1353 108.544L99.6062 124.983V156.75M114.5 46.519L70.1353 72.8856L85.663 81.6691M114.5 46.519L158.231 72.8856L142.925 81.6691M114.5 46.519V64.1578M114.5 64.1578L85.663 81.6691M114.5 64.1578L142.925 81.6691M85.663 81.6691L114.5 97.9814L142.925 81.6691" />
    </g>
    <g id="icon-3">
      <path d="M89.9294 44.1292L113.521 29.4195L138.07 44.1292M89.9294 44.1292L113.521 58.1703M89.9294 44.1292L89.9295 71.5427M138.07 44.1292L113.521 58.1703M138.07 44.1292V71.5427M113.521 58.1703L113.521 112.997M89.9297 98.9562L113.521 112.997M89.9297 98.9562L42.4575 71.5425M89.9297 98.9562L89.9295 71.5427M89.9297 98.9562L65.8593 113.534M138.07 98.9562L113.521 112.997M138.07 98.9562L138.07 71.5427M138.07 98.9562L161.806 85.2494L185.543 71.5425M138.07 98.9562L162.017 113.459M113.521 112.997L89.9297 127.707L65.8593 141.748M113.521 112.997L138.07 127.707L162.141 141.748M113.521 112.997L113.521 141.748M113.521 141.748L113.521 196.575M113.521 141.748L138.07 155.855M113.521 141.748L89.9297 155.599M113.521 196.575L138.07 182.534V155.855M113.521 196.575L89.9297 182.534L89.9297 155.599M185.543 127.707L162.141 141.748M185.543 127.707L162.017 113.459M185.543 127.707V156.458L161.807 169.496M162.141 141.748L161.807 169.496M65.8593 141.748L65.8593 169.731M65.8593 141.748L42.4575 127.707M42.4575 127.707L42.4575 156.458C48.6697 160.02 57.4956 165.044 65.8593 169.731M42.4575 127.707L65.8593 113.534M42.4575 71.5425L65.8593 58.0288L89.9295 71.5427M42.4575 71.5425V99.6246L65.8593 113.534M185.543 71.5425L162.141 58.029L138.07 71.5427M185.543 71.5425V98.9562C179.24 102.864 170.379 108.336 162.017 113.459M65.8593 169.731L89.9297 155.599M161.807 169.496L138.07 155.855" />
    </g>
    <g id="icon-4">
      <path d="M42 47.019L66.338 33L120.197 63.6479M42 47.019L95.8592 77.0597M42 47.019V108.436L53.7634 114.889M66.338 197L42 182.981V121.787M66.338 197V135.806M66.338 197L120.197 166.252V152.364M186 101.092V128.685L132.366 159.305M186 101.092L132.366 132.023M186 101.092L132.366 70.5726L120.197 77.0343M95.8592 77.0597V105.098M95.8592 77.0597L120.197 63.6479M95.8592 105.098L90.9014 102.37M95.8592 105.098L107.577 98.1995M42 121.787L66.338 135.806M42 121.787L53.7634 114.889M66.338 135.806L90.9014 121.787M90.9014 121.787V155.388L120.197 138.476M90.9014 121.787L78.3986 114.889M90.9014 121.787V127.795L95.8592 124.901L107.577 131.437M120.197 138.476L107.577 131.437M120.197 138.476V152.364M132.366 159.305V132.023M132.366 159.305L120.197 152.364M132.366 132.023L107.577 118.061M107.577 118.061L113.012 114.889M107.577 118.061V131.437M107.577 83.7354L136.648 101.092L113.012 114.889M107.577 83.7354V98.1995M107.577 83.7354L120.197 77.0343M120.197 63.6479V77.0343M113.012 114.889L107.577 111.787V98.1995M66.338 121.787V88.8535L90.9014 102.37M66.338 121.787L78.3986 114.889M66.338 121.787L53.7634 114.889M78.3986 114.889L90.9014 107.738V102.37" />
    </g>
    <g id="arrow-right">
      <path d="M31.3478 4.10921C31.5462 3.91712 31.5513 3.60058 31.3592 3.40219L28.229 0.169312C28.0369 -0.0290737 27.7203 -0.0341792 27.5219 0.157909C27.3236 0.349996 27.3185 0.666538 27.5105 0.864923L30.293 3.7386L27.4193 6.52104C27.2209 6.71313 27.2158 7.02967 27.4079 7.22806C27.6 7.42644 27.9165 7.43155 28.1149 7.23946L31.3478 4.10921ZM-0.00806347 3.74993L30.9919 4.24993L31.0081 3.25007L0.00806347 2.75007L-0.00806347 3.74993Z" />
    </g>
    <g id="logo">
      <path fill="var(--text)" d="M0 7.86805e-07H7V34H0V7.86805e-07Z M27 7.86805e-07H34V34H27V7.86805e-07Z M48 15V22L33 22V15L48 15Z M51 7.86805e-07V7L33 7V0L51 7.86805e-07Z M24 27V34H5L5 27H24Z" />
      <path fill="var(--primary)" d="M84.4655 6.99997H81.1755L80.6155 6.42997V5.14997H81.3155V6.36997H84.3255V3.85997H81.2255L80.6555 3.29997V0.649966L81.2255 0.0899658H84.4455L85.0155 0.649966V2.10997H84.3155V0.719966H81.3555V3.21997H84.4655L85.0255 3.78997V6.42997L84.4655 6.99997Z M77.5336 6.99997H73.6036V0.0899658H77.4936L78.0636 0.649966V2.86997L77.4336 3.49997L78.0936 4.15997V6.42997L77.5336 6.99997ZM77.3536 2.67997V0.719966H74.3136V3.20997H76.8236L77.3536 2.67997ZM77.3836 4.34997L76.8536 3.81997H74.3136V6.36997H77.3836V4.34997Z M66.8554 6.99997H66.1454V5.66997L68.2754 0.0899658H69.1754L71.3054 5.65997V6.99997H70.6054V5.73997L70.2854 4.90997H67.1754L66.8554 5.73997V6.99997ZM68.7254 0.789966L67.3854 4.27997H70.0754L68.7254 0.789966Z M64.58 6.99997H60.92V0.0899658H61.63V6.33997H64.58V6.99997Z" />
    </g>
    <g id="logo-exemple">
      <path d="M47.544 14.894h-5.031v-2.625h8.006v7.525l-.088.087c-1.619 1.269-4.55 2.188-6.956 2.188-5.206 0-8.881-3.5-8.881-8.575 0-2.581.919-4.769 2.581-6.344 1.575-1.488 3.806-2.275 6.256-2.275 2.406 0 4.506.744 6.344 2.319l.131.131-1.444 2.319-.219-.175c-1.4-1.225-2.931-1.794-4.812-1.794-3.5 0-5.906 2.363-5.906 5.819s2.406 5.775 5.994 5.775c1.444 0 2.887-.394 3.981-1.05v-3.325h.044zM67.1 19.138v2.669H54.019V5.138H67.1v2.669H56.863v4.069h8.488v2.669h-8.488v4.638H67.1v-.044zm18.856-14l-6.519 7.788-6.475-7.788h-2.625v16.669h2.931V9.95l5.775 7h.7l5.775-7v11.856h2.931V5.138h-2.494zM95.8 21.806h-2.931V5.138H95.8v16.669zm6.956-16.625l-.087-.088h-2.538v16.669h2.932V9.95l9.931 11.769.087.087h2.538V5.138h-2.931v11.9l-9.932-11.856zm20.125 16.625h-2.931V5.138h2.931v16.669zM17.444.5c-4.637 0-8.575 3.588-9.056 8.094-4.55.481-8.137 4.419-8.137 9.1 0 4.987 4.069 9.056 9.056 9.056 4.638 0 8.575-3.587 9.056-8.094 4.55-.481 8.137-4.419 8.137-9.1C26.5 4.569 22.431.5 17.444.5zm6.912 10.15a7.05 7.05 0 0 1-5.95 5.95v-5.95h5.95zM2.394 16.6a7.05 7.05 0 0 1 5.95-5.95v5.95h-5.95zm13.956 2.056c-.481 3.456-3.456 5.95-6.913 5.95s-6.431-2.494-6.912-5.95H16.35zm0-8.006v5.95H10.4v-5.95h5.95zm8.006-2.056H10.4c.481-3.456 3.456-5.95 6.913-5.95 3.587-.131 6.563 2.494 7.044 5.95z"/>
    </g>
    <g id="blog-line">
    <path d="M731.275 462.326l-1.464 2.838c-10.676 21.411-6.492 46.977 2.35 69.116 8.138 20.202 19.914 38.834 31.672 57.438 12.8 20.252 25.579 40.471 33.62 62.646 19.146 52.855 7.375 116.098-34.304 155.673s-112.92 50.429-162.965 20.502c-45.186-27.007-66.013-78.272-79.39-127.106l-5.797-21.895v-.002l-.001-.002c-10.938-42.033-22.01-84.581-49.609-118.759-9.01-11.09-19.932-21.284-33.659-26.825-22.461-9.05-48.826-3.85-70.872 6.154-11.662 5.292-22.594 11.806-33.537 18.325-9.743 5.805-19.494 11.615-29.774 16.571-74.555 36.29-173.975 19.586-230.814-38.772-56.454-58.202-81.185-139.64-47.699-212.163 22.577-48.804 75.018-82.328 113.282-102.732 29.101-15.591 61.495-30.914 103.813-20.182 43.821 11.073 78.681 33.009 108.739 53.808m386.409 205.367c6.477 3.726 13.622 5.916 20.9 6.487m-20.9-6.487c43.103-80.464 146.146-10.774 177.721 39.41 9.333 14.771 21.041 26.811 34.219 35.978m-211.94-75.388c-7.035-4.048-13.284-9.908-18.061-17.474-7.365-11.549-23.686-25.563-39.895-30.269m78.856 54.23c8.167 5.543 17.458 8.838 26.974 9.741m-26.974-9.741c-6.607-4.485-12.48-10.442-17.142-17.795-8.375-13.21-27.152-29.325-45.841-34.742m62.983 52.537c15.347 1.203 31.286-4.795 42.809-18.772 9.423-11.276 13.975-25.648 14.597-39.989.496-10.271-.907-20.971-5.693-30.343-7.775-15.396-23.417-26.222-40.514-31.76-16.999-5.455-35.309-6.335-53.369-6.17-9.079.041-18.422.362-27.179-1.999-8.857-2.443-17.248-8.002-19.906-16.251-5.063-15.452 12.078-27.579 16.456-43.268 5.536-19.724-15.906-36.601-29.579-41.261-18.271-6.359-34.381-1.881-46.675 5.309s-21.106 22.318-23.058 37.878c-2.95 23.737 4.936 30.207-7.546 55.776-9.223 19.126-34.329 26.555-56.602 25.178-22.372-1.46-44.432-33.052-84.369-43.116-17.779-4.442-31.334 2.02-43.484 8.495-15.962 8.444-37.947 22.508-47.37 42.968-14.058 30.423-3.835 64.411 20.034 88.842 23.77 24.348 65.391 31.32 96.577 16.148 8.997-4.452 17.238-10.543 26.443-14.653 9.293-4.204 20.307-6.291 29.71-2.552 5.662 2.26 10.323 6.516 14.072 11.174 13.482 16.859 17.615 38.542 23.167 58.913s14.351 41.805 33.209 53.167c20.985 12.485 50.676 8.08 68.196-8.573s22.362-43.14 14.365-65.235c-6.521-17.847-20.346-32.656-27.416-50.296-3.754-9.339-5.431-19.936-1.018-28.914 5.31-10.683 12.99-15.482 21.505-16.392m119.612 65.437c10.032 7.149 21.622 11.285 33.48 12.209m-33.48-12.209c-7.122-5.075-13.458-11.668-18.548-19.708-10.394-16.584-34.454-36.825-57.465-41.687m76.013 61.395c18.032 1.71 36.877-5.169 50.433-21.613 10.808-13.116 16.065-29.734 16.832-46.29.575-12.042-1.199-24.224-6.641-35.151-8.948-17.717-27.222-30.258-46.898-36.63s-40.895-7.364-61.667-7.142c-10.572.121-21.221.51-31.406-2.216s-19.859-9.365-22.965-18.827c-5.774-17.886 13.961-32.006 19.033-50.116 6.374-22.86-18.412-42.385-34.192-47.816-21.036-7.183-39.64-2.131-53.922 6.223-14.183 8.438-24.448 25.853-26.622 43.897-3.372 27.558 5.786 34.931-8.699 64.493-10.819 22.125-39.78 30.819-65.532 29.185s-51.485-38.152-97.513-49.835c-20.446-5.184-36.187 2.277-50.238 9.825-18.499 9.816-43.912 26.005-54.821 49.724-16.204 35.129-4.342 74.506 23.222 102.715s75.617 36.251 111.713 18.699c10.644-5.07 19.952-12.101 30.706-16.912 10.665-4.718 23.337-7.247 34.277-2.883 6.529 2.656 11.891 7.67 16.243 13.002 15.697 19.39 20.309 44.316 26.812 67.992s16.538 48.49 38.402 61.546c24.287 14.429 58.612 9.248 78.88-9.935s25.982-49.78 16.649-75.337c-7.538-20.707-23.468-37.789-31.643-58.197-4.4-10.717-6.372-23.065-1.199-33.408 6.153-12.38 15.061-17.925 24.926-18.964m139.31 76.18c11.325 7.803 24.304 12.33 37.577 13.372m-37.577-13.372c20.519 1.598 41.84-6.422 57.274-25.101 12.458-15.235 18.586-34.461 19.477-53.585.742-13.905-1.25-28.107-7.634-40.661-10.338-20.558-31.442-34.98-54.18-42.426-22.825-7.353-47.338-8.61-71.381-8.303-12.252.21-24.68.606-36.39-2.569s-22.843-10.708-26.419-21.734c-6.88-20.654 16.096-36.89 21.93-57.866 7.279-26.441-21.434-48.936-39.607-55.212-24.482-8.413-46.028-2.498-62.387 7.116s-28.141 29.758-30.703 50.649c-3.861 31.823 6.679 40.359-10.051 74.544-12.481 25.57-45.955 35.475-75.748 33.615s-59.337-44.094-112.686-57.595c-23.585-5.988-41.687 2.658-58.012 11.298-21.4 11.383-50.867 30.172-63.427 57.512-18.769 40.653-5.037 86.113 26.825 118.774 31.763 32.578 87.389 41.984 129.121 21.659 12.094-5.854 22.929-13.937 35.319-19.542 12.303-5.511 27.105-8.418 39.68-3.346 7.582 3.041 13.734 8.719 18.798 14.985 18.13 22.44 23.55 51.385 31.025 78.719s19.153 56.035 44.417 71.118c27.985 16.706 67.876 10.698 91.145-11.471 23.357-22.261 29.9-57.672 19.2-87.219-8.665-23.826-27.106-43.688-36.594-67.206-4.969-12.365-7.344-26.723-1.335-38.701 7.144-14.338 17.472-20.755 28.906-21.939m123.437 74.487c-8.672-5.975-16.374-13.872-22.496-23.595-20.73-32.812-88.782-78.562-116.044-23.68-6.923 13.88-4.232 30.341 1.514 44.696 10.933 27.239 32.181 50.131 42.29 77.679 12.484 34.221 4.781 75.168-22.214 100.715-26.896 25.629-73.002 32.585-105.364 13.199-29.158-17.526-42.697-50.632-51.275-82.235-8.667-31.51-14.838-65.096-35.895-91.001-5.777-7.2-12.828-13.802-21.749-17.302-14.495-5.853-31.614-2.558-45.916 3.944-14.213 6.408-26.938 15.74-40.933 22.666-48.279 23.499-112.51 12.696-149.273-25.092s-52.714-90.46-31.05-137.36c14.64-31.602 48.612-53.28 73.275-66.426 18.862-10.012 39.788-19.956 67.17-13.111 17.299 4.386 32.441 11.391 46.037 19.248m449.5 211.027c12.93 8.815 27.703 13.969 42.813 15.222m-42.813-15.222c23.726 1.861 48.395-7.416 66.244-29.025 14.381-17.456 21.446-39.735 22.527-61.872.8-16.028-1.419-32.425-8.767-46.96-11.937-23.741-36.266-40.375-62.636-49.041s-54.725-9.984-82.512-9.655c-14.129.134-28.511.722-42.032-2.975s-26.507-12.456-30.652-25.13c-7.831-23.959 18.639-42.765 25.399-66.971 8.525-30.569-24.718-56.71-45.754-63.893-28.213-9.716-53.164-2.825-72.149 8.253-18.245 10.782-31.688 32.932-35.219 56.142m265.551 291.127c-10.164-6.93-19.19-16.121-26.348-27.457-23.644-37.602-102.15-90.48-133.846-26.972-7.914 16.053-4.875 35.144 1.845 51.655 12.696 31.561 37.342 57.982 48.84 89.871 14.398 39.508 5.589 86.873-25.648 116.531s-84.393 37.695-121.9 15.314c-33.722-20.197-49.362-58.579-59.361-95.052s-17.142-75.218-41.443-105.19c-6.687-8.299-14.922-15.898-25.193-20.033-16.799-6.79-36.499-2.828-52.997 4.497-16.488 7.5-31.092 18.257-47.371 26.1-55.826 27.168-130.177 14.695-172.729-28.967s-60.875-104.51-35.92-158.828c16.865-36.577 56.154-61.629 84.717-76.837 21.762-11.579 45.962-23.111 77.624-15.168 21.285 5.387 39.753 14.204 56.248 23.99m516.295 241.768c15.09 10.596 32.432 16.808 50.196 18.357m-50.196-18.357c-11.287-7.926-21.314-18.306-29.313-31.021-27.852-43.649-118.665-104.881-155.183-31.402-9.168 18.504-5.66 40.662 2.154 59.765 14.677 36.401 43.138 67.035 56.529 103.858 16.652 45.746 6.418 100.429-29.688 134.673s-97.608 43.609-140.95 17.653c-39.065-23.358-57.036-67.709-68.598-109.84s-19.916-86.905-47.878-121.628c-7.793-9.566-17.235-18.513-29.129-23.18-19.488-7.884-42.24-3.318-61.287 5.202s-35.882 21.074-54.699 30.288c-64.46 31.425-150.445 17.009-199.598-33.544s-70.483-120.779-41.553-183.61c19.517-42.194 64.926-71.281 98.026-88.85 25.113-13.435 53.234-26.677 89.747-17.491 23.855 6.048 44.647 15.823 63.267 26.729m548.153 262.398c27.539 2.284 56.203-8.393 76.893-33.49 16.646-20.227 24.813-45.92 26.053-71.598.923-18.596-1.732-37.531-10.153-54.305-13.754-27.442-42.087-46.778-72.463-56.644s-63.143-11.391-95.332-11.092c-16.281.159-32.913.691-48.618-3.508s-30.645-14.268-35.479-29.024c-9.077-27.514 21.514-49.366 29.354-77.338 9.738-35.227-28.527-65.428-52.911-73.757-32.701-11.156-61.43-3.269-83.392 9.645-19.931 11.721-34.759 35.027-39.908 60.037m356.152 359.431c48.873 33.998 117.965 28.483 161.075-23.755 22.41-27.069 33.23-61.558 34.88-95.737 1.11-24.787-2.41-50.124-13.72-72.838-18.44-36.731-56.06-62.55-96.75-75.754s-84.451-15.292-127.487-14.769l-5.001.07m47.003 282.783c32 2.79 65.365-9.554 89.385-38.666 19.27-23.369 28.68-53.191 30.06-82.762 1.02-21.516-2-43.434-11.8-62.873-15.98-31.651-48.53-54.031-83.774-65.492s-73.088-13.247-110.326-12.856c-18.806.205-38.052.876-56.138-3.992s-35.373-16.577-40.907-33.593c-10.477-32.032 24.97-57.144 33.947-89.504 11.369-40.701-32.994-75.7-61.108-85.333-37.683-13.01-71.014-3.819-96.414 11.045-23.897 14.023-41.327 42.297-46.728 72.298m306.8 108.945h-.012m0 0c-20.236.298-40.528.596-59.961-4.652-20.94-5.598-40.87-19.199-47.312-38.816-7.532-22.859 5.265-42.714 18.581-63.375 8.223-12.759 16.645-25.826 20.598-40.097 13.222-47.158-38.117-87.527-70.631-98.692-43.598-14.815-82.09-4.289-111.468 12.905-29.278 17.278-50.391 53.286-54.949 90.533-1.593 12.871-1.851 23.616-1.646 33.249m0 0c-.359 1.997-.666 4.003-.917 6.012-1.226 10.043-1.52 18.59-1.432 26.285m2.349-32.297c.557 26.172 4.527 44.142-5.605 74.276m3.256-41.979a97.58 97.58 0 0 0-1.268 7.685c-1.295 10.606-1.385 19.28-1.14 27.04m2.408-34.725c.338 29.903 6.426 46.94-14.092 88.912-19.306 39.533-71.164 55.009-117.127 52.066-24.573-1.521-49.086-20.825-79.12-41.672m207.931-64.581l-.336 2.449c-.203 1.654-.372 3.254-.512 4.805m.848-7.254c.733 23.267 4.476 38.319-12.246 72.587-16.73 34.186-61.505 47.607-101.265 45.04-21.772-1.405-43.521-18.965-70.438-37.527m183.101-72.846c-2.573 7.652-6.055 16.089-10.733 25.643-22.3 45.698-82.252 63.547-135.449 60.194-9.422-.607-18.832-3.465-28.467-7.892m174.649-77.945c-2.951 32.78 7.355 43.555-11.078 81.303-14.485 29.562-53.286 41.163-87.689 38.93-22.754-1.411-45.406-23.162-75.882-42.288m0 0c-2.752-1.726-5.567-3.432-8.452-5.099m8.452 5.099c-19.8-9.096-40.547-24.818-64.292-41.248m55.84 36.149c-7.549-5.206-15.505-10.49-23.982-15.519m0 0c-9.946-6.904-20.498-13.978-31.858-20.63m160.49 104.124c-3.704-1.825-7.719-3.402-12.124-4.508-9.888-2.477-17.533 1.109-24.333 4.739-8.976 4.805-21.226 12.698-26.521 24.108-7.761 17.016-2.01 36.052 11.278 49.741s36.558 17.574 54.013 9.05c2.43-1.164 4.703-2.533 6.967-3.896 2.568-1.547 5.125-3.086 7.886-4.312 5.195-2.308 11.301-3.516 16.579-1.412 3.171 1.333 5.748 3.669 7.874 6.293 6.473 8.009 9.053 17.956 11.615 27.833l1.353 5.127c3.137 11.491 8.084 23.504 18.582 29.834 11.76 7.058 28.362 4.497 38.189-4.769s12.567-24.16 8.07-36.462c-1.87-5.133-4.853-9.849-7.845-14.578-2.765-4.372-5.537-8.754-7.445-13.489-2.19-5.183-3.115-11.139-.617-16.218 4.559-9.124 12.212-10.572 19.897-8.329m-123.418-48.752c4.226 2.971 8.164 5.735 11.951 7.901m-11.951-7.901c-10.346-7.273-22.421-15.786-38.243-19.812-13.313-3.354-23.408 1.51-32.57 6.325-11.974 6.289-28.465 16.793-35.489 32.092-10.501 22.726-2.761 48.28 15.012 66.411s48.901 23.453 72.266 12.054c6.723-3.36 12.909-7.84 19.742-10.941s15.068-4.688 22.167-1.886c4.313 1.626 7.789 4.885 10.529 8.36 10.128 12.533 13.182 28.797 17.389 44.029s10.621 31.318 24.806 39.749c15.654 9.5 38.01 6.103 51.012-6.334s16.662-32.239 10.688-48.79c-4.934-13.339-15.163-24.453-20.46-37.595-2.769-7.007-4.098-14.973-.763-21.686 3.933-7.968 9.63-11.574 15.964-12.283m-132.05-49.693c8.536 4.206 15.417 9.73 21.602 13.856m-9.651-5.955c3.379 2.34 6.562 4.424 9.651 5.955m-9.651-5.955c-9.679-6.702-20.969-15.494-36.296-19.354-11.414-2.926-20.146 1.248-28.034 5.465-10.338 5.495-24.577 14.555-30.697 27.774-9.093 19.737-2.413 41.726 12.97 57.512 15.482 15.869 42.252 20.362 62.53 10.54 5.91-2.875 11.195-6.777 17.116-9.477 6.009-2.792 13.135-4.143 19.181-1.726 3.654 1.572 6.626 4.24 9.059 7.29 8.901 10.831 11.441 24.827 15.059 38.059s9.242 27.151 21.485 34.449c13.504 8.025 32.895 5.139 44.129-5.615s14.405-27.791 9.219-42.176c-4.168-11.524-12.994-21.123-17.623-32.535-2.43-6.053-3.508-12.973-.679-18.776 3.459-6.95 8.485-10.039 14.048-10.579m-111.467-40.851c4.438 2.539 8.668 4.256 12.912 4.523 16.73 1.054 35.488-4.537 42.389-18.769 2.199-4.472 3.561-8.162 4.385-11.417m-50.035 31.618c4.746 3.166 9.082 5.508 13.44 5.8 12.503.836 26.473-3.44 31.722-14.052 3.547-7.27 4.153-11.768 4.101-16.178m-49.263 24.43c2.941 1.457 5.796 2.413 8.657 2.61 14.38.913 30.656-3.927 36.644-16.257 2.086-4.291 3.291-7.749 3.962-10.783m0 0c.581-2.626.763-4.933.772-7.188m-.772 7.188c-.05-4.28-.72-8.476.077-15.044.373-2.818 1.129-5.61 2.217-8.234m-1.522 16.09c1.237-4.891 1.257-8.803 1.071-12.916m-1.071 12.916c.02-5.213-.884-10.14.086-18.054 1.254-10.135 6.931-19.886 14.885-24.549s18.453-7.517 30.216-3.461c8.801 3.064 22.664 13.897 19.146 26.801-2.845 10.132-13.877 18.049-10.552 28.028 1.727 5.296 7.102 8.984 12.809 10.447s11.69 1.321 17.586 1.273c11.604-.087 23.526.427 34.51 3.993s21.241 10.529 26.158 20.512c3.088 6.106 4.068 12.943 3.73 19.673-.462 9.298-3.361 18.549-9.463 25.939-14.821 17.922-40.99 15.604-52.911-3.28-4.656-7.655-15.258-16.833-25.787-19.867m-59.342-80.371a42.77 42.77 0 0 0 .451-3.174m-.451 3.174c-.221-4.862-.731-10.007.14-17.386 1.442-11.646 8.054-22.949 17.271-28.385s21.188-8.722 34.861-4.062c10.14 3.523 26.262 16.09 22.204 30.878-3.308 11.746-16.142 20.818-12.249 32.446 1.969 6.166 8.221 10.426 14.883 12.191 6.573 1.858 13.479 1.491 20.308 1.393 13.47-.187 27.181.497 39.889 4.679s24.532 12.296 30.38 23.731c3.515 6.967 4.658 14.943 4.198 22.74-.562 10.716-3.836 21.488-10.906 29.901-17.174 20.785-47.306 17.972-61.089-3.816-5.683-8.782-18.018-19.354-30.204-22.87m-69.686-81.44c-.81 4.469-2.469 9.572-5.676 16.131-7.98 16.498-29.681 22.951-48.946 21.768-19.178-1.276-38.356-28.606-72.871-37.281-15.31-3.866-26.954 1.699-37.566 7.297-13.875 7.362-32.795 19.496-40.985 37.154-12.152 26.346-3.242 55.724 17.338 76.885s56.526 27.199 83.527 14.017c7.821-3.772 14.898-9.006 22.916-12.612 7.931-3.513 17.55-5.438 25.615-2.157 4.894 1.947 8.864 5.622 12.108 9.689 11.751 14.566 15.24 33.368 20.06 50.952 4.731 17.677 12.327 36.261 28.65 45.991 18.167 10.78 43.861 6.853 58.996-7.465 15.036-14.4 19.258-37.234 12.377-56.386-5.624-15.422-17.453-28.217-23.626-43.433-3.294-7.95-4.699-17.148-.869-24.947 4.594-9.26 11.258-13.401 18.638-14.163m-69.235-84.614c2.276-5.491 6.007-10.242 10.72-12.943 6.867-4.075 15.894-6.498 26.121-3.068 7.649 2.597 19.647 12.027 16.581 23.141-.94 3.359-2.924 6.425-4.856 9.411-3.123 4.824-6.111 9.441-4.341 14.747 1.499 4.601 6.183 7.708 11.044 9.128 4.197 1.225 8.665 1.186 13.121 1.146l2.116-.013c10.012-.091 20.342.419 29.889 3.444 9.459 3.118 18.344 9.093 22.714 17.78 2.661 5.246 3.4 11.212 3.195 17.052-.149 3.418-.702 6.826-1.683 10.103m-124.621-89.928c.927-8.957-1.223-15.949.29-28.904 1.608-13.51 9.331-26.55 19.9-32.853 10.668-6.22 24.571-10.05 40.351-4.619 11.764 4.055 30.354 18.699 25.59 35.732-3.761 13.536-18.562 24.127-14.187 37.495 2.307 7.119 9.536 12.034 17.152 14.102s15.653 1.817 23.513 1.752c15.623-.212 31.398.538 46.113 5.408s28.296 14.127 35.009 27.46c4.052 8.086 5.368 17.378 4.885 26.323-.553 12.394-4.565 24.884-12.581 34.672-19.878 24.019-54.719 20.75-70.771-4.45-6.16-9.998-20.231-22.16-34.242-26.232m43.599 4.042c-4.735-1.001-9.426-1.35-13.944-.883m13.944.883c-1.33 4.446-3.447 8.653-6.403 12.318-12.809 15.607-35.411 13.453-45.677-2.869-4.136-6.372-13.231-14.132-22.282-16.773m60.418 6.441c-5.382-1.56-10.756-2.232-15.873-1.693m0 0c-4.676-1.358-9.342-1.941-13.782-1.466m0 0c-3.995-1.162-7.986-1.665-11.787-1.272m0 0c-3.515-1.014-7.017-1.441-10.344-1.069m0 0c-2.926-.843-5.846-1.212-8.632-.941"/>
    </g>
    <g id="hero-line">
      <path d="M568.24 486.631C510.967 432.252 420.498 434.552 366.17 491.77C311.843 548.987 314.23 639.455 371.503 693.834C428.775 748.213 519.245 745.912 573.573 688.694C627.9 631.477 625.513 541.01 568.24 486.631ZM568.24 486.631C563.41 482.045 558.331 477.883 553.05 474.144M568.24 486.631C573.07 491.217 577.49 496.074 581.497 501.155M568.145 486.73C501.345 423.305 395.825 425.988 332.46 492.724C269.095 559.46 271.879 664.977 338.679 728.402C405.479 791.828 510.999 789.144 574.364 722.408C637.729 655.672 634.944 550.155 568.145 486.73ZM568.145 486.73C490.193 412.716 367.059 415.849 293.116 493.725C219.173 571.602 222.423 694.733 300.374 768.747C378.325 842.76 501.46 839.628 575.403 761.751C649.346 683.875 646.096 560.743 568.145 486.73ZM567.958 486.928C481.616 404.948 345.227 408.417 263.325 494.677C181.423 580.936 185.022 717.321 271.364 799.301C357.706 881.281 494.095 877.812 575.997 791.553C657.899 705.293 654.3 568.908 567.958 486.928ZM567.958 486.928C467.217 391.276 308.082 395.326 212.52 495.97C116.959 596.615 121.159 755.745 221.9 851.397C322.641 947.049 481.776 943.002 577.337 842.357C672.898 741.712 668.699 582.58 567.958 486.928ZM164.911 911.416C-30.6712 725.715 -38.8249 416.777 146.7 221.382C332.225 25.9868 641.174 18.1287 836.756 203.83C1032.34 389.532 1040.49 698.472 854.966 893.867C669.441 1089.26 360.493 1097.12 164.911 911.416ZM164.911 911.416C176.402 922.327 188.269 932.595 200.468 942.222M164.911 911.416C153.422 900.508 142.555 889.191 132.311 877.509M164.725 911.613C-9.14986 746.522 -16.3977 471.87 148.536 298.161C313.47 124.453 588.129 117.467 762.004 282.558C935.879 447.649 943.127 722.3 778.193 896.008C613.259 1069.72 338.6 1076.7 164.725 911.613ZM164.725 911.613C175.442 921.789 186.528 931.336 197.936 940.256M164.725 911.613C154.004 901.433 143.892 890.854 134.391 879.919M164.442 911.911C21.5316 776.22 15.5752 550.478 151.137 407.704C286.7 264.93 512.447 259.188 655.357 394.879C798.268 530.571 804.225 756.311 668.663 899.085C533.101 1041.86 307.353 1047.6 164.442 911.911ZM164.442 911.911C172.861 919.904 181.556 927.426 190.494 934.476M164.442 911.911C156.025 903.919 148.064 895.626 140.561 887.066M164.353 912.005C37.3035 791.374 32.0072 590.685 152.524 463.757C273.041 336.829 473.733 331.724 600.783 452.356C727.833 572.987 733.129 773.674 612.612 900.602C492.095 1027.53 291.403 1032.64 164.353 912.005ZM164.353 912.005C157.534 905.53 151.039 898.842 144.868 891.961M164.353 912.005C171.172 918.48 178.187 924.619 185.378 930.425M164.256 912.107C46.7876 800.573 41.889 615.022 153.317 497.666C264.745 380.31 450.302 375.59 567.771 487.124C685.239 598.658 690.136 784.21 578.708 901.566C467.279 1018.92 281.724 1023.64 164.256 912.107ZM164.256 912.107C162.338 910.286 160.449 908.447 158.589 906.588M164.256 912.107C166.168 913.922 168.097 915.708 170.042 917.464M138.251 884.405C136.952 882.917 135.665 881.422 134.391 879.919M138.251 884.405C139.016 885.295 139.786 886.182 140.561 887.066M138.251 884.405C15.5938 741.769 18.4065 526.689 150.602 387.46C291.608 238.954 526.419 232.982 675.068 374.121C823.717 515.26 829.913 750.065 688.908 898.571C556.718 1037.79 342.084 1051.75 193.288 936.658M138.251 884.405C146.501 893.85 155.265 902.996 164.542 911.804C173.826 920.619 183.42 928.903 193.288 936.658M134.391 879.919C133.694 879.118 133.001 878.314 132.311 877.509M134.391 879.919C3.58232 725.644 7.25148 494.466 149.573 344.573C302.08 183.952 556.046 177.493 716.82 330.145C877.595 482.798 884.297 736.756 731.79 897.377C589.465 1047.27 358.78 1062.91 197.936 940.256M132.311 877.509C129.673 874.501 127.077 871.469 124.521 868.413M132.311 877.509C-16.3674 703.965 -12.7571 442.714 147.886 273.525C319.444 92.84 605.134 85.5736 785.992 257.295C966.85 429.016 974.389 714.698 802.831 895.383C642.19 1064.57 381.48 1081.71 200.468 942.222M124.521 868.413C-46.7751 665.416 -41.6688 361.87 145.307 164.947C345.98 -46.4018 680.154 -54.9014 891.706 145.963C1103.26 346.827 1112.08 680.991 911.402 892.34C724.378 1089.31 421.395 1110.09 209.791 949.406M124.521 868.413C137.07 883.283 150.565 897.614 165.004 911.324C179.393 924.986 194.348 937.679 209.791 949.406M124.521 868.413C-38.7089 673.216 -33.2961 382.49 145.97 193.687C338.941 -9.54971 660.289 -17.7231 863.72 175.431C1067.15 368.586 1075.63 689.924 882.66 893.161C703.348 1082.01 413.188 1102.44 209.791 949.406M209.791 949.406C206.662 947.052 203.555 944.657 200.468 942.222M200.468 942.222C199.622 941.57 198.778 940.915 197.936 940.256M197.936 940.256C196.38 939.07 194.831 937.87 193.288 936.658M193.288 936.658C192.354 935.936 191.423 935.208 190.494 934.476M190.494 934.476C188.779 933.144 187.074 931.794 185.378 930.425M190.494 934.476C328.094 1041.33 526.901 1028.56 649.283 899.671C779.659 762.359 773.93 545.255 636.486 414.755C499.043 284.255 281.932 289.777 151.557 427.089C29.1733 555.983 26.719 755.186 140.561 887.066M185.378 930.425C180.162 926.3 175.047 921.98 170.042 917.464M185.378 930.425C307.765 1027.2 485.907 1016.38 595.326 901.143C711.221 779.082 706.128 586.091 583.95 470.085C461.773 354.08 268.776 358.989 152.881 481.05C43.4627 596.288 41.8867 774.75 144.868 891.961M170.042 917.464C168.095 915.71 166.165 913.925 164.253 912.11C162.335 910.289 160.447 908.448 158.589 906.588M170.042 917.464C287.742 1023.46 469.092 1017.01 578.706 901.568C690.134 784.212 685.238 598.66 567.769 487.126C450.301 375.592 264.744 380.312 153.316 497.668C43.7068 613.108 46.6553 794.535 158.589 906.588M158.589 906.588C153.826 901.83 149.252 896.951 144.868 891.961M144.868 891.961C143.415 890.34 141.979 888.708 140.561 887.066M553.05 474.144C498.847 435.775 423.317 441.987 376.293 491.513C324.687 545.864 326.954 631.8 381.358 683.455C435.762 735.11 521.699 732.924 573.305 678.573C620.329 629.047 622.622 553.297 581.497 501.155M553.05 474.144C558.072 478.26 562.981 482.588 567.765 487.131C572.55 491.673 577.127 496.352 581.497 501.155M553.05 474.144C446.795 387.084 289.806 395.531 193.802 496.642C93.2601 602.533 97.6784 769.957 203.671 870.595C309.663 971.232 477.092 966.974 577.634 861.083C673.637 759.972 673.943 602.757 581.497 501.155M361.094 704.796C300.79 647.538 298.276 552.283 355.48 492.036C412.683 431.79 507.941 429.367 568.245 486.625C628.549 543.882 631.063 639.138 573.86 699.384C516.657 759.631 421.398 762.054 361.094 704.796ZM350.11 716.366C286.612 656.076 283.965 555.775 344.198 492.338C404.43 428.901 504.734 426.35 568.232 486.64C631.73 546.93 634.377 647.231 574.144 710.668C513.911 774.105 413.608 776.656 350.11 716.366ZM326.598 741.128C256.279 674.362 253.348 563.288 320.051 493.036C386.754 422.785 497.832 419.96 568.15 486.726C638.469 553.492 641.4 664.567 574.697 734.818C507.994 805.069 396.917 807.895 326.598 741.128ZM313.764 754.642C239.711 684.33 236.624 567.355 306.87 493.372C377.115 419.389 494.093 416.414 568.147 486.727C642.201 557.039 645.288 674.014 575.042 747.997C504.796 821.98 387.818 824.955 313.764 754.642ZM286.345 783.524C204.333 705.656 200.915 576.111 278.709 494.178C356.503 412.246 486.051 408.951 568.062 486.819C650.074 564.687 653.492 694.232 575.698 776.164C497.904 858.097 368.356 861.392 286.345 783.524ZM255.746 815.75C164.857 729.452 161.068 585.884 247.283 495.082C333.499 404.28 477.071 400.629 567.96 486.926C658.849 573.224 662.637 716.791 576.422 807.593C490.206 898.395 346.635 902.047 255.746 815.75ZM239.291 833.079C143.638 742.259 139.651 591.166 230.385 495.605C321.12 400.044 472.216 396.201 567.869 487.022C663.522 577.842 667.509 728.934 576.775 824.496C486.04 920.057 334.944 923.9 239.291 833.079ZM184.531 890.753C72.9631 784.821 68.3123 608.589 174.143 497.128C279.974 385.667 456.211 381.185 567.779 487.116C679.347 593.048 683.997 769.28 578.166 880.741C472.335 992.202 296.099 996.684 184.531 890.753ZM164.817 911.518C-23.2409 732.961 -31.0799 435.907 147.308 248.03C325.695 60.1519 622.757 52.5962 810.815 231.153C998.873 409.711 1006.71 706.765 828.324 894.642C649.937 1082.52 352.874 1090.08 164.817 911.518ZM164.63 911.713C-2.58642 752.944 -9.55677 488.811 149.061 321.754C307.679 154.698 571.82 147.98 739.037 306.749C906.253 465.518 913.224 729.651 754.606 896.708C595.988 1063.76 331.847 1070.48 164.63 911.713ZM164.533 911.817C9.92977 765.023 3.48501 520.813 150.139 366.358C296.792 211.902 541.01 205.69 695.613 352.484C850.217 499.277 856.661 743.487 710.008 897.943C563.354 1052.4 319.137 1058.61 164.533 911.817ZM164.357 912.001C32.2183 786.539 26.7101 577.814 152.054 445.802C277.398 313.79 486.128 308.481 618.266 433.944C750.405 559.407 755.913 768.132 630.569 900.144C505.225 1032.16 296.495 1037.46 164.357 912.001Z"/>
    </g>
    <g id="portfolio-line">
      <path d="M535.797 964.563l-16.738 9.775-18.729 10.903-20.723 11.278c-7.173 3.761-14.346 7.521-21.918 10.901-7.571 3.76-15.143 7.14-22.715 10.15-7.571 3.39-15.143 6.39-22.715 9.03-7.571 2.63-15.143 5.26-22.714 7.51-7.572 2.26-14.745 3.76-21.918 5.27-7.173 1.5-14.347 2.25-21.121 2.63s-13.549.38-19.527 0a75.13 75.13 0 0 1-18.331-3.38c-5.978-1.51-11.159-3.76-16.339-6.4-5.181-2.63-9.963-6.01-14.745-9.77s-9.166-7.52-13.151-12.78c-3.985-5.27-7.571-10.905-11.158-17.296l-10.76-19.55c-3.586-6.767-6.774-13.91-9.962-21.053s-6.376-14.662-9.166-22.557l-8.369-23.309-7.97-23.309-7.173-23.309-6.775-22.933-6.774-22.181c-1.993-7.143-4.384-14.286-6.376-21.054s-4.384-13.534-6.376-19.925l-6.775-18.422c-2.391-6.015-4.782-11.278-7.173-16.541s-5.181-10.151-7.97-14.663-5.978-9.022-9.166-13.91c-3.188-4.511-6.775-9.399-10.76-14.286s-7.571-9.775-11.955-14.662c-3.985-4.887-8.368-9.775-12.752-14.662L93.454 651.02c-4.782-4.888-9.166-10.151-13.948-15.414l-13.948-15.414-13.948-15.79-13.151-16.166c-4.384-5.263-8.369-10.903-11.955-16.166-3.587-5.639-7.173-10.903-10.361-16.542s-5.579-10.902-7.97-16.542-3.985-11.278-5.181-16.917S1 510.79 1 505.151s.797-11.279 1.993-16.542c1.594-5.263 3.587-10.527 5.978-15.79s5.579-10.151 9.166-15.038 7.572-9.775 11.557-14.662a229.25 229.25 0 0 1 13.549-13.91c4.782-4.512 9.564-9.399 14.745-13.911l15.143-13.534c5.181-4.511 10.361-9.023 15.143-13.91 5.181-4.511 9.963-9.399 14.745-13.91s9.564-9.399 13.948-14.286 8.368-9.775 12.353-14.663 7.572-9.774 10.76-15.038 5.978-10.15 8.767-15.414c2.391-5.263 4.782-10.902 6.376-16.165s2.79-10.903 3.985-16.166 1.993-10.903 2.79-16.166l2.391-15.79c.797-5.264 1.993-10.151 3.587-15.414 1.195-4.888 3.188-9.775 5.18-14.286s4.384-9.023 7.173-13.535c2.79-4.135 5.978-8.271 9.963-12.406 3.587-3.76 7.97-7.519 12.752-10.903s9.564-6.767 15.143-9.774 11.557-6.016 17.535-8.647c6.376-2.632 12.752-5.264 19.527-7.519s13.549-4.512 20.324-6.391l20.722-6.016 19.527-5.263c6.376-1.88 9.962-4.511 15.143-7.519 4.782-2.632 9.963-5.639 15.143-9.023s10.361-6.767 15.542-10.527 10.361-7.519 15.542-11.654 10.76-8.271 15.94-12.782c5.579-4.135 10.76-8.647 16.339-13.158l16.737-13.534 16.738-13.158c5.579-4.135 11.158-8.647 17.135-12.406 5.579-4.135 11.557-7.895 17.136-11.278 5.978-3.384 11.557-6.767 17.534-9.775s11.557-5.639 17.535-7.519c5.977-2.256 11.955-3.76 17.933-4.887S542.173 1 548.15 1c6.775 0 13.151 1.504 19.129 3.76 5.977 2.632 11.158 6.015 16.339 10.527s9.962 9.775 14.346 15.414 8.767 12.406 12.752 19.174 7.97 14.286 11.955 21.805 7.572 15.414 11.159 22.933c3.586 7.895 7.571 15.414 11.158 23.309 3.586 7.519 7.571 15.038 11.556 22.557 3.986 7.143 7.971 14.286 11.956 20.677s8.368 12.783 12.752 18.422 9.166 10.902 13.948 15.414 9.962 8.647 15.541 12.03 11.159 6.392 16.738 9.023c5.977 2.632 11.955 4.888 17.933 7.143s12.353 4.136 18.729 6.391 12.753 3.76 19.527 5.64l19.527 5.639 19.128 5.639c6.377 1.88 12.753 3.76 18.73 6.015 6.376 2.256 12.354 4.136 18.332 6.768 5.977 2.255 11.955 4.887 17.534 7.519s11.158 5.263 16.339 8.271 10.361 6.015 15.542 9.398c4.782 3.384 9.564 6.767 14.346 10.527 4.383 3.759 9.166 7.519 13.151 11.278 3.985 4.136 7.173 8.271 9.962 12.407 2.79 4.511 4.782 8.647 6.376 13.534 1.594 4.512 2.391 9.399 2.79 14.286s.398 10.151 0 15.414-1.196 10.527-2.391 16.166-2.79 11.279-4.384 16.918-3.586 11.654-5.579 17.294c-1.992 6.015-4.383 12.03-6.376 18.045s-4.383 12.031-6.376 18.422c-1.993 6.015-3.985 12.406-5.579 18.798s-2.79 12.782-3.985 19.173c-.797 6.391-1.594 12.782-1.594 19.174 0 7.143 1.992 14.286 5.18 21.429s7.572 14.286 13.151 21.053 11.557 13.91 18.73 20.677c6.775 6.768 13.948 13.535 21.519 20.302 7.173 6.767 14.745 13.534 21.918 19.925s13.951 13.159 20.321 19.55c6.38 6.391 11.96 12.782 16.34 19.173 4.78 6.391 8.37 12.407 11.16 18.422s3.99 12.406 3.99 18.421-1.2 12.031-3.99 18.046-6.77 12.031-12.75 18.046-12.36 12.03-19.13 17.67c-6.78 5.639-14.35 10.526-21.918 15.414s-15.144 9.022-23.114 13.158c-7.97 3.759-15.542 7.519-23.113 10.526s-15.144 5.64-22.715 7.895-14.745 3.76-21.918 5.264-13.948 2.255-20.722 3.007-13.55 1.128-20.324 1.504-13.55.376-20.723.376-14.346.376-22.316.376l-25.106 1.504c-9.166.752-17.933 3.007-26.7 5.263s-17.136 4.888-25.505 8.271-16.338 6.767-24.308 10.903-15.144 8.271-22.715 13.158c-7.174 4.887-14.347 9.775-21.121 15.414-6.775 5.263-13.549 11.279-19.926 16.918s-13.15 12.03-19.925 18.421l-20.324 19.55c-7.173 6.767-14.346 13.158-22.316 19.925s-15.94 13.535-25.106 20.302l-29.888 18.797z"/><path d="M891.26 508.535c0-6.768.399-12.783 1.196-19.174s1.992-12.406 3.586-18.797c1.594-6.016 3.188-12.407 5.181-18.422s3.586-12.031 5.579-17.67 3.586-11.654 5.579-16.918l4.782-16.541c1.195-5.264 2.391-10.527 3.188-15.79s1.195-10.151 1.195-15.038-.398-9.399-1.195-13.911-2.391-9.023-4.384-13.158-4.383-8.271-7.571-12.03-6.775-7.519-11.158-10.903-9.166-6.767-14.347-10.151c-4.782-3.383-9.962-6.391-15.541-9.023-5.181-3.007-10.76-5.639-16.339-8.27s-11.557-5.264-17.136-7.519l-17.933-7.144c-5.978-2.255-12.354-4.511-18.331-6.391-5.978-2.255-12.354-4.135-18.73-6.391l-18.73-6.767c-5.978-2.256-12.354-4.511-18.331-7.143l-17.535-7.895c-5.579-2.632-11.158-6.015-16.338-9.775s-10.362-7.895-15.144-12.406-9.165-9.775-13.549-15.414-8.767-11.655-12.752-18.422l-11.955-20.677c-3.985-7.143-7.572-14.662-11.158-22.181s-7.174-15.414-11.159-22.933-7.173-15.414-11.158-22.933l-11.557-21.805c-3.985-6.767-8.368-13.534-12.752-19.174-4.383-6.015-9.165-11.279-14.346-15.79s-10.361-7.895-16.339-10.527-12.354-4.511-19.128-4.135c-5.978 0-11.955.752-17.933 2.256-5.978 1.128-11.955 3.008-17.534 5.263-5.978 2.256-11.557 4.887-17.535 7.895s-11.556 6.391-17.135 9.775-11.557 7.519-17.136 11.279-11.159 8.271-16.738 12.406-11.158 8.647-16.737 12.782l-16.339 13.158-15.94 12.783c-5.181 4.135-10.361 8.27-15.542 12.03l-15.542 11.279c-5.18 3.759-9.962 7.143-15.143 10.15l-14.745 8.647c-4.782 2.632-9.564 5.263-14.346 7.519s-11.955 3.384-18.331 5.263-12.752 3.76-19.129 6.016l-18.331 6.767c-5.977 2.631-11.557 5.263-17.136 7.895s-10.361 6.015-15.143 9.023c-4.782 3.383-9.166 6.767-13.151 10.526s-7.571 7.519-10.759 11.655-5.978 8.271-8.768 12.782c-2.391 4.511-4.782 9.023-6.774 13.534l-5.978 14.662c-1.992 5.264-3.586 10.151-5.579 15.038l-5.977 15.414c-1.993 5.64-3.986 10.903-6.377 16.542s-4.383 11.279-7.173 16.542c-3.188 5.264-6.376 10.527-10.361 15.414-3.586 5.264-7.572 10.151-11.955 15.038-3.985 4.888-8.369 9.775-13.151 14.662l-13.948 14.662-14.346 14.287-14.346 14.286c-4.782 4.887-9.564 9.399-13.948 14.286s-8.767 9.399-12.752 14.286-7.97 9.775-11.158 14.662-6.376 10.151-8.767 15.038c-2.391 5.264-4.384 10.527-5.579 15.79s-1.992 10.903-1.992 16.542.797 11.279 1.992 16.918 2.79 11.278 5.181 16.542c2.391 5.639 4.782 10.902 7.97 16.542s6.376 10.902 10.361 16.165c3.587 5.264 7.572 10.903 11.955 16.166l13.151 15.79c4.384 5.264 9.166 10.527 13.948 15.79l14.346 15.414c4.782 5.264 9.564 10.151 14.347 15.038l13.947 14.662 13.151 14.663c4.384 4.887 8.369 9.398 12.354 14.286l11.158 13.91c3.587 4.511 6.775 9.023 9.963 13.534s5.977 9.023 8.767 13.91 5.18 10.527 7.97 16.166c2.391 5.64 5.181 11.655 7.572 18.046l7.173 19.549 7.173 20.678 7.173 21.805c2.391 7.519 5.181 14.662 7.572 22.181 2.789 7.519 5.18 15.038 7.97 22.557l8.368 22.181c2.79 7.143 5.978 14.286 9.166 21.43l9.564 20.301c3.188 6.767 6.775 12.782 10.361 18.422s7.572 10.526 11.557 15.038a99.87 99.87 0 0 0 13.151 12.406c4.782 3.759 9.564 6.767 14.745 9.399s10.759 4.887 16.338 6.39 11.557 2.63 17.933 3.38c6.376.76 12.753.76 19.129.38 6.774-.38 13.549-1.13 20.324-2.26 6.774-1.12 13.947-3.003 21.12-4.883s14.347-4.135 21.52-6.767 14.346-5.263 21.519-8.271 14.346-6.015 21.121-9.398l20.324-10.151 19.128-10.151 17.136-9.775c6.775-3.759 19.128-11.654 27.896-17.669s16.737-12.031 24.308-18.422c7.572-6.015 14.745-12.406 21.918-18.422s13.55-12.03 20.324-18.045l19.926-17.294c6.774-5.639 13.15-10.903 19.925-15.79s13.549-9.775 20.722-14.286 14.347-8.647 21.52-12.407 15.143-7.143 22.715-10.15 15.541-5.639 23.512-7.519c7.97-2.256 15.94-3.76 23.91-4.888s15.94-1.879 23.512-2.255 14.745-1.128 21.918-1.504 13.948-1.128 20.722-1.88 13.549-1.504 20.324-3.007c6.775-1.128 13.948-2.632 20.722-4.888 7.174-1.88 13.948-4.135 21.121-6.767s14.347-6.015 21.52-9.399 14.346-7.519 21.519-12.03 13.948-9.399 20.324-14.662 13.151-11.279 18.331-16.918 9.568-11.279 11.958-16.918 3.98-11.278 4.38-16.918c0-5.639-.8-11.278-3.19-17.293-1.99-5.64-5.18-11.655-9.163-17.67s-8.767-12.031-14.346-18.046-11.557-12.406-17.933-18.421-13.15-12.783-19.526-19.174l-19.129-19.549c-5.978-6.768-11.955-13.535-16.737-20.302s-9.166-13.91-11.955-20.677-5.181-14.286-5.181-21.429z"/><path d="M529.021 923.585c-5.579 3.008-11.159 5.639-17.136 8.647s-12.354 5.639-18.332 8.647c-6.376 2.631-12.752 5.639-19.526 7.895-6.775 2.631-13.151 4.887-19.926 7.143a204.69 204.69 0 0 1-20.324 5.639c-6.774 1.504-13.15 3.008-19.925 3.76-6.376 1.128-13.151 1.503-19.128 1.503s-12.354 0-18.332-.751-11.556-1.88-17.135-3.76-10.76-3.759-15.941-6.391-9.962-6.015-14.346-9.399c-4.384-3.759-8.767-7.895-13.151-12.406-3.985-4.512-7.97-9.399-11.556-15.038-3.587-5.264-7.174-11.279-10.362-17.294s-6.376-12.407-9.564-18.798-6.376-13.158-9.165-19.925-5.978-13.534-8.768-20.677l-8.368-20.678c-2.79-6.767-5.579-13.91-7.97-20.677-2.79-6.767-5.181-13.534-7.971-19.926s-5.18-12.782-7.97-18.797-5.579-11.655-8.368-17.294-5.579-10.527-8.768-15.414c-2.789-4.887-5.977-9.023-9.165-13.534s-6.775-8.647-10.361-13.158-7.572-9.023-11.557-13.535-8.369-9.398-12.752-13.91l-13.55-14.286-13.947-14.662-14.347-14.662-14.346-15.038c-4.782-5.264-9.564-10.151-13.948-15.414l-13.15-15.79-11.955-15.79c-3.587-5.264-7.173-10.527-9.963-16.166-3.188-5.263-5.579-10.903-7.97-16.166-2.391-5.639-3.985-10.903-5.181-16.542s-1.993-11.278-1.993-16.542.399-11.278 1.594-16.542 3.188-10.902 5.181-15.79c2.391-5.263 5.181-10.526 8.369-15.414s6.775-10.15 10.361-15.038c3.985-4.887 7.97-9.774 12.354-14.662l13.15-14.662c4.384-4.887 9.166-9.775 13.948-14.662l13.948-14.662c4.384-4.887 9.166-9.775 13.549-15.038l12.752-15.414c3.985-5.263 7.971-10.151 11.557-15.414s7.173-10.527 9.963-15.79c3.188-5.263 5.977-10.527 8.767-16.166s5.181-10.903 7.173-16.166 4.782-10.151 7.572-15.038l8.368-13.534c2.79-4.512 5.978-8.647 9.166-12.783s6.775-7.895 10.361-11.654 7.572-7.143 11.955-10.527 8.768-6.391 13.948-9.398c4.782-3.008 9.963-5.64 15.542-8.271s11.158-4.888 17.136-6.767c5.977-2.256 11.955-4.136 17.933-5.64 5.977-1.88 11.955-3.383 16.338-5.639s9.166-4.511 13.948-7.143 9.564-5.263 14.346-8.271 9.565-6.391 14.745-9.775c4.782-3.383 9.963-7.143 15.143-10.526s10.362-7.519 15.542-11.655 10.361-7.895 15.941-12.03l15.94-12.407 16.339-12.406c5.579-4.136 11.158-7.895 16.737-11.655s11.158-7.519 16.737-10.903 11.557-6.767 17.136-9.399c5.579-3.008 11.557-5.263 17.534-7.519s11.557-3.76 17.535-5.263 11.955-1.88 17.534-2.256c6.775-.376 13.151 1.504 19.128 4.136s11.159 6.015 16.339 10.527 9.963 9.399 14.346 15.414c4.384 5.639 8.768 12.03 12.753 18.798s7.97 13.91 11.556 21.053l11.159 22.181 10.759 22.181c3.587 7.519 7.173 14.662 11.158 21.429 3.587 7.143 7.572 13.535 11.557 19.926s7.97 12.406 12.354 18.045 8.767 10.903 13.151 15.414c4.782 4.888 9.564 9.023 14.346 12.783s10.361 7.143 15.542 10.15l16.737 9.023c5.579 2.632 11.557 5.64 17.534 7.895s11.557 5.264 17.535 7.519c5.977 2.632 11.955 4.888 17.534 7.519s11.557 4.888 17.136 7.519l16.737 7.895c5.579 2.632 10.76 5.64 15.94 8.647s10.361 6.015 14.745 9.399 8.369 6.767 11.557 10.151 5.977 7.143 8.368 10.902 3.986 7.895 5.181 12.031 1.993 8.647 2.391 12.782c.399 4.512.399 9.023 0 13.91s-1.195 9.775-1.992 14.662l-3.587 15.414-4.782 16.542-4.782 16.918c-1.594 5.639-3.188 11.655-4.384 17.67s-2.391 12.03-3.188 18.421-1.594 12.407-1.195 19.174c0 7.143 1.992 14.662 4.782 21.429s6.774 13.91 11.556 20.677 9.963 13.159 15.941 19.926c5.579 6.391 11.556 12.782 17.933 19.173l17.534 18.422c5.579 6.015 10.76 12.03 15.542 17.67s8.767 11.654 11.955 16.918c3.188 5.639 5.579 10.902 6.775 16.541 1.195 5.264 1.594 10.903.398 16.166-.797 5.264-3.188 10.527-6.376 15.79s-7.97 10.527-13.948 16.166c-5.977 5.264-12.354 10.903-19.128 16.166-6.376 4.887-13.151 9.399-19.926 13.534s-13.549 7.519-20.722 10.903c-6.775 3.008-13.948 6.015-20.722 8.271s-13.55 4.135-20.324 6.015c-6.775 1.504-13.549 3.008-20.723 4.136s-13.947 2.255-21.12 3.007c-7.174 1.128-14.745 1.88-21.918 3.008-7.572 1.128-15.144 2.631-22.715 4.887-7.572 1.88-15.144 4.512-22.715 7.143s-15.143 6.015-22.715 9.399-14.745 7.143-21.918 11.655c-7.173 4.135-14.346 8.646-21.121 13.534-7.173 4.887-13.948 9.774-20.722 15.038l-20.723 16.166-21.121 16.918-22.316 17.293c-7.572 5.64-15.94 11.279-24.309 16.918l-28.692 16.166z"/><path d="M825.503 526.58c0-6.767.398-12.782 1.195-18.797s1.993-12.407 3.188-18.046 2.79-11.655 3.985-17.294 2.79-11.278 4.384-16.542 2.79-10.526 3.985-15.79 1.993-10.15 2.79-15.038 1.195-9.399 1.195-13.91 0-9.023-.797-13.158-1.594-8.271-3.188-12.031-3.587-7.519-5.978-11.278-5.579-7.143-8.767-10.527c-3.586-3.383-7.571-6.767-11.955-9.775s-9.564-6.391-14.745-9.398a330.36 330.36 0 0 0-15.94-8.647l-16.339-8.647c-5.579-3.008-11.158-5.639-16.737-8.647l-16.339-9.023c-5.579-3.007-10.76-6.391-15.94-9.775s-9.963-7.143-14.745-10.902c-4.782-4.136-9.564-8.271-13.948-13.158s-8.767-9.775-12.752-15.414-7.97-11.279-11.955-17.67-7.572-12.783-11.557-19.55l-10.76-20.677-10.759-21.429c-3.587-7.143-7.173-14.286-11.159-21.429s-7.571-13.911-11.556-20.302-8.369-12.406-12.752-18.045-9.166-10.527-14.347-14.663-10.361-7.519-16.339-10.15-11.955-4.135-18.729-3.76c-5.978 0-11.956.752-17.933 2.256-5.978 1.128-11.955 3.008-17.933 4.887-5.978 2.256-11.955 4.512-17.534 7.519-5.978 2.632-11.557 6.016-17.535 9.399-5.579 3.384-11.556 6.767-17.135 10.527l-16.738 11.278c-5.579 3.76-11.158 7.895-16.737 12.031l-16.339 12.03-15.94 11.655c-5.181 3.759-10.361 7.519-15.542 10.902l-15.143 10.151c-5.181 3.384-9.963 6.015-14.346 9.023-4.782 3.007-9.565 5.639-13.948 7.895s-9.166 4.887-13.549 6.767-10.76 3.759-16.738 5.639-11.955 4.136-17.534 6.391-11.158 4.888-16.339 7.895c-5.18 2.632-9.963 6.016-14.745 9.023s-9.165 6.767-13.15 10.527c-4.384 3.759-8.369 7.519-12.354 11.654s-7.572 8.271-10.361 13.159-5.579 10.15-8.369 15.414c-3.188 5.263-5.978 10.526-9.564 15.79-3.188 5.263-6.775 10.526-10.361 15.789s-7.572 10.527-11.557 16.166-8.369 10.527-12.354 15.79l-13.15 15.79-13.55 15.79c-4.383 5.264-9.165 10.527-13.549 15.414l-13.151 15.414c-4.383 5.264-8.368 10.527-11.955 15.79s-7.173 10.527-10.361 15.79-5.978 10.903-7.97 16.166c-2.391 5.639-3.985 10.903-5.181 16.542s-1.196 11.654-1.196 17.294.797 10.902 1.993 16.542 2.79 10.902 5.181 16.165 4.782 10.903 7.97 16.166 6.376 10.527 9.963 15.79 7.571 10.527 11.955 15.79c3.985 5.264 8.369 10.151 13.151 15.414 4.383 5.264 9.165 10.151 13.947 15.038l14.347 14.662 14.346 14.663 14.346 14.286c4.782 4.511 9.166 9.399 13.948 13.91l13.151 13.534c4.383 4.512 8.368 9.023 12.353 13.158l11.159 12.783c3.586 4.135 6.774 8.271 9.962 12.406 3.188 4.512 6.376 9.023 9.564 14.286 3.188 4.888 5.978 10.527 9.166 16.166 2.79 5.64 5.978 11.279 8.767 17.294s5.978 12.031 8.767 18.046l8.768 18.421c3.188 6.016 5.977 12.407 9.165 18.422s5.978 12.406 9.166 18.798 6.376 12.406 9.564 18.421 6.775 11.655 10.361 16.918 7.173 10.151 11.158 14.662 7.971 8.647 12.354 12.406 9.166 6.768 13.948 9.775c4.782 2.632 9.963 5.264 15.143 7.143s10.76 3.384 16.339 4.136 11.158 1.504 17.136 1.88 11.955 0 17.933-.376 12.353-1.504 18.331-2.632 12.354-2.632 18.331-4.136 12.354-3.383 18.332-5.639c5.977-1.88 11.955-4.135 17.932-6.391s11.557-4.511 16.738-6.767c7.173-3.008 18.331-9.023 27.098-13.91 8.369-4.888 16.737-10.151 24.708-15.414s15.541-10.527 23.113-15.79 14.745-10.527 21.918-15.79l21.519-15.414c7.174-4.888 14.347-9.775 21.918-14.286 7.173-4.512 14.745-8.647 21.918-12.783 7.572-4.135 14.745-7.519 22.317-10.902s15.143-6.392 22.714-9.399 15.144-5.263 22.317-7.143c7.173-2.256 14.346-4.136 21.519-5.639l20.324-4.512 19.926-5.639c6.376-2.256 13.15-4.512 19.526-7.519s13.151-6.015 19.527-9.775 12.752-7.895 19.129-12.782c6.376-4.512 12.752-10.151 18.729-15.038 5.978-5.264 10.76-10.151 14.745-15.038s6.376-9.775 7.97-14.662 1.993-9.775 1.594-15.039c-.398-4.887-1.992-10.15-4.383-15.038-2.391-5.263-5.579-10.526-9.564-15.79s-8.369-10.902-13.55-16.541c-4.782-5.64-10.361-11.279-15.94-17.294l-16.339-18.046c-5.18-6.015-10.361-12.406-14.745-19.173-4.383-6.392-7.97-13.159-10.759-19.926s-4.782-15.79-4.782-22.933z"/><path d="M513.884 890.877c-5.579 1.88-11.158 3.384-16.737 4.888s-11.557 3.007-17.136 4.135-11.557 1.88-17.535 2.632-11.556 1.128-17.135 1.128-11.557-.376-16.738-1.128c-5.579-.752-11.158-1.88-16.338-3.384s-10.362-3.383-15.542-5.639c-4.782-2.256-9.564-5.263-14.347-8.271s-8.767-6.767-13.15-10.903c-3.985-4.135-7.97-8.647-11.955-13.534-3.587-4.887-7.174-10.151-10.76-15.79s-6.775-11.278-9.963-17.294-6.376-12.406-9.165-18.421c-3.189-6.391-5.978-12.783-9.166-18.798s-5.978-12.406-9.564-17.669-6.775-10.903-9.963-16.166-6.775-10.527-9.963-15.414c-3.586-4.888-6.774-9.399-10.361-13.911s-7.173-8.271-10.76-12.406l-11.955-12.406-12.752-13.159c-4.384-4.511-9.166-9.023-13.549-13.534l-14.347-13.91c-4.782-4.887-9.962-9.399-14.744-14.286l-15.144-14.662c-5.18-4.888-9.962-9.775-14.744-15.038-4.782-4.888-9.963-10.151-14.347-15.414s-9.165-10.151-13.549-15.414-8.368-10.527-12.354-15.79-7.571-10.527-10.361-16.166-5.977-10.903-8.368-16.542-3.985-10.903-5.579-16.542c-1.196-5.639-1.993-11.279-1.993-16.918s0-11.654.797-17.67 2.391-11.278 4.384-16.917 4.383-11.279 7.571-16.542c2.79-5.639 5.978-10.903 9.564-16.166s7.572-10.527 11.557-16.166c3.985-5.263 8.369-10.527 12.354-15.79l13.151-15.79 13.549-15.79c4.782-5.263 8.767-10.527 13.151-15.79s8.767-10.527 12.752-15.79 8.368-10.151 12.353-15.414 7.971-10.151 11.956-15.038 7.571-9.775 11.556-14.286 7.572-9.023 11.159-13.534c3.985-4.136 7.571-8.271 12.353-11.655 5.181-3.383 10.362-6.015 15.542-9.023s10.76-5.263 16.737-7.519 11.557-4.511 17.933-6.015c5.978-1.88 9.963-3.759 14.346-6.015s8.369-4.512 13.151-7.143c4.384-2.632 8.767-4.888 13.55-7.895l13.947-8.647 14.745-9.399c4.782-3.383 9.963-6.767 15.143-10.15s10.361-7.144 15.542-10.527c5.181-3.76 10.361-7.143 15.94-10.903 5.181-3.759 10.76-7.143 16.339-10.902s11.158-7.143 16.737-10.527 11.159-6.767 16.738-9.775 11.556-6.015 17.136-8.271 11.556-4.887 17.534-6.767 11.557-3.383 17.534-4.511 11.955-1.504 17.933-1.504c7.173 0 13.549 1.504 19.527 3.76s11.557 5.639 16.737 10.15c5.181 4.136 9.963 9.023 14.346 14.662s8.768 11.655 12.753 18.046 7.97 13.158 11.955 20.301a536.87 536.87 0 0 1 11.158 21.054c3.587 7.143 7.173 14.286 11.158 21.053l11.159 20.301c3.586 6.391 7.571 12.783 11.556 18.798s7.97 11.654 12.354 16.918 8.767 10.526 13.151 15.038a224.02 224.02 0 0 0 13.947 13.158c4.783 4.135 9.963 7.895 15.144 11.655s10.361 7.519 15.542 10.902l15.94 10.527c5.18 3.383 10.759 6.767 15.542 10.15s9.165 6.768 13.15 10.527c3.985 3.384 7.572 7.143 10.361 10.903s5.58 7.519 7.572 11.278 3.587 7.895 4.782 12.031 1.594 8.647 1.993 12.782.398 9.023-.399 13.91-1.195 9.775-1.992 14.662c-.797 5.264-1.993 10.151-3.188 15.79l-3.985 16.542-3.985 17.67c-1.196 6.015-2.392 12.406-2.79 18.421a156.38 156.38 0 0 0-1.196 19.55c0 7.143 1.594 14.286 3.986 20.677 2.391 6.767 5.977 13.159 9.962 19.174a196.81 196.81 0 0 0 13.549 18.045l14.745 16.918c4.782 5.64 9.564 10.903 13.948 15.79 4.384 5.263 8.369 10.151 11.557 15.038s5.977 9.775 7.571 14.286 2.79 9.399 2.79 13.535-.797 9.022-2.79 13.534-4.782 9.023-8.767 13.534-8.767 9.023-14.346 13.91-12.354 9.775-17.933 14.286-11.557 8.647-17.534 12.031-11.955 6.767-17.933 9.775-11.955 5.263-18.331 7.519-13.151 4.887-20.324 7.519-14.347 5.639-21.918 8.647-15.143 6.391-22.715 9.774-15.542 7.143-23.114 11.279l-23.113 12.406-22.715 13.535-22.715 14.662-23.113 15.038c-7.97 5.263-15.542 9.774-23.911 14.662-7.97 4.887-16.338 9.399-25.106 13.91-10.759 6.015-21.519 11.279-28.692 13.534z"/><path d="M753.776 552.145a160.88 160.88 0 0 1 1.195-19.549c.797-6.392 1.594-12.407 2.79-18.422l3.586-17.67 3.587-16.542c1.196-5.263 1.993-10.526 2.79-15.414s1.195-9.774 1.594-14.662 0-9.398-.399-13.91-1.195-8.647-2.391-13.158c-1.195-4.136-2.789-8.271-4.782-12.407s-4.384-7.895-7.173-12.03c-2.79-3.76-5.978-7.895-9.963-11.654-3.586-3.76-7.571-7.895-11.955-11.655-4.384-4.135-9.166-7.895-13.948-12.03s-9.564-8.647-13.948-12.783-8.767-9.023-13.15-13.91-8.369-9.775-12.354-15.038-7.97-10.903-11.955-16.918-7.572-12.03-11.158-18.045-7.174-12.783-10.76-19.55l-10.76-20.301c-3.586-6.767-7.173-13.535-11.158-20.302-3.587-6.767-7.572-13.158-11.557-19.173s-8.368-12.031-12.752-17.294-9.166-9.775-14.346-13.91c-5.181-3.76-10.76-7.143-16.737-9.399s-12.354-3.384-19.527-3.384c-5.978 0-11.956.376-17.535 1.128-5.977.752-11.556 2.256-17.534 3.76s-11.557 3.759-17.136 6.015-11.557 4.887-17.136 7.519-11.158 5.639-16.737 8.647-10.76 6.391-16.339 9.399l-15.94 9.774-15.542 10.151-15.143 9.775-14.745 9.399-14.346 9.023-13.549 8.27-13.151 7.895c-4.384 2.632-8.369 4.888-12.354 7.519s-7.97 4.888-11.556 7.519c-3.986 2.632-11.557 3.76-17.535 6.392-5.977 2.255-11.158 5.263-16.737 8.271-5.181 3.007-10.361 6.767-15.143 10.526s-9.963 7.895-14.745 12.031-9.564 8.647-14.346 13.158-9.166 9.399-13.948 14.286L213.4 358.154c-4.782 4.888-9.166 10.151-13.948 15.038-4.782 5.264-9.165 10.151-13.549 15.414l-13.151 15.79c-4.383 5.264-8.368 10.527-12.353 15.79s-7.572 10.903-11.159 16.166-6.376 10.903-9.165 16.542-5.181 11.278-6.775 16.918-3.188 11.278-3.985 17.294c-.797 5.639-.398 12.03-.398 17.669s.797 11.279 1.992 16.542c1.196 5.639 3.188 10.903 5.181 16.542 2.391 5.263 5.18 10.903 8.368 16.166s6.775 10.527 10.362 15.79c3.985 5.263 7.97 10.526 12.353 15.414 4.384 5.263 8.767 10.151 13.549 15.414l14.347 15.038c4.782 4.887 9.962 9.775 15.143 14.662l15.143 14.286c5.181 4.512 9.963 9.399 15.144 13.91s9.962 9.023 14.744 13.535 9.565 8.646 14.347 12.782 9.165 8.271 13.549 12.406 8.767 7.895 12.752 12.031c3.985 3.759 7.97 7.895 11.955 11.654s7.572 7.519 11.158 12.031 6.775 9.399 9.963 14.662 5.978 10.902 9.166 16.918l8.767 17.669c2.79 6.016 5.978 12.031 8.767 17.67 3.188 5.639 5.978 11.655 9.564 16.918 3.188 5.263 6.775 10.526 10.361 15.414s7.174 9.399 11.159 13.534 7.97 7.895 12.353 11.279 8.768 6.391 13.151 9.022 9.166 4.888 14.346 6.768c4.782 1.879 9.963 3.383 15.144 4.511s10.361 1.88 15.541 2.256 10.76.376 15.941.376 10.759-.752 16.339-1.504 10.759-1.504 16.338-2.632c7.174-1.504 17.933-6.015 26.302-9.775 8.767-3.759 17.136-7.895 25.504-12.03l24.708-13.534c7.97-4.512 16.339-9.399 24.309-14.286s15.94-9.399 24.309-14.286c7.97-4.512 15.94-9.399 23.91-13.535l23.91-13.158c7.971-4.511 15.941-8.271 23.911-12.406l23.113-11.655c7.572-3.759 14.745-7.519 21.52-11.278s13.549-7.519 19.527-11.279 11.158-7.895 16.338-12.406l15.542-13.911c4.782-4.511 8.767-8.646 12.354-12.782s6.376-8.271 8.369-12.03c1.992-4.136 3.188-7.895 3.188-12.031s-.399-7.895-1.594-12.03-3.587-8.271-5.978-12.783c-2.79-4.135-5.978-8.647-9.963-13.534-3.586-4.511-7.97-9.399-12.353-14.286s-8.768-10.151-13.151-15.414-8.767-10.903-12.354-16.918-6.775-12.03-9.166-18.421c-3.188-6.016-4.383-12.783-4.383-19.926z"/><path d="M497.142 859.673c-5.579.752-10.76.752-16.339.752a108.06 108.06 0 0 1-15.542-1.128c-5.18-.752-9.962-1.88-15.143-3.383-4.782-1.504-9.564-3.384-14.346-5.64s-9.166-4.887-13.55-7.895-8.368-6.391-12.752-10.15-7.97-7.895-11.557-12.407-7.173-9.399-10.759-14.286c-3.188-5.263-6.775-10.527-9.564-16.166s-5.978-11.278-9.166-17.294l-8.767-17.293c-2.79-5.64-5.978-11.279-8.767-16.542s-5.978-10.527-9.963-14.662-7.572-8.647-11.557-12.783-8.368-8.271-13.15-12.406c-4.384-4.136-9.565-7.895-14.347-12.03l-15.143-12.783c-5.181-4.135-10.361-8.647-15.542-13.158l-15.94-13.534-15.94-14.287-15.941-14.662c-5.18-4.887-10.361-9.774-15.143-15.038-4.782-4.887-9.564-10.15-14.346-15.414l-13.151-15.79c-4.384-5.263-7.97-10.526-11.158-16.166s-6.376-10.902-8.767-16.541-4.384-11.279-5.579-16.542-1.993-11.279-1.993-16.918-.398-12.407.399-18.422 1.992-12.03 3.985-17.669c1.992-6.016 4.383-11.655 7.173-17.294s5.977-11.279 9.564-16.918 7.572-11.279 11.557-16.542 8.368-10.903 13.15-16.166 9.166-10.527 14.347-15.79l15.143-15.038c5.181-4.887 10.361-9.775 15.94-14.286s10.76-9.023 16.738-13.158c5.579-4.136 11.556-8.271 17.534-12.031s12.354-7.143 18.73-10.15 13.947-5.64 18.73-8.647 9.165-6.016 13.15-9.023l12.752-8.647c3.986-2.632 8.369-5.639 12.753-8.271 4.383-3.008 8.767-5.639 13.15-8.647s9.166-5.639 13.948-8.647l14.346-9.023 15.144-9.398c5.18-3.384 10.361-6.392 15.542-9.399l15.94-9.399 16.339-9.023c5.579-3.007 11.158-5.639 16.737-8.271s11.557-4.887 17.136-7.143 11.556-4.135 17.534-5.639 11.955-2.632 17.933-3.384 11.955-1.127 17.933-.752c7.173.376 13.549.752 19.527 3.008 5.977 1.88 11.556 4.887 16.737 8.647s9.963 8.271 14.346 13.158 8.767 10.527 12.752 16.166 7.971 12.031 11.557 18.046l10.76 19.173 10.759 19.174 10.76 18.797 10.76 17.67c3.586 5.639 7.571 11.279 11.158 16.542l11.955 15.414 11.557 15.038c3.587 4.887 6.775 9.775 9.963 14.286s5.977 9.023 8.368 13.535 4.782 9.022 6.376 13.158c1.993 4.511 3.188 9.023 4.384 13.534s1.993 9.023 2.391 13.534.399 9.399.399 14.286-.797 9.775-1.196 15.039l-2.391 15.789c-1.196 5.264-1.993 10.903-3.188 16.542s-2.391 11.655-3.188 17.67c-1.196 6.015-1.993 12.031-2.79 18.422s-.797 13.158-1.195 19.549c0 7.143 1.195 13.534 3.188 19.926s4.782 12.03 8.368 17.669 7.174 10.903 11.159 15.79 8.368 9.775 11.955 13.91c3.985 4.512 7.97 8.647 11.158 12.783s6.376 7.895 8.767 11.654 4.384 7.519 5.579 10.903 1.594 7.143 1.594 10.527-1.195 6.767-2.391 10.526c-1.594 3.384-3.586 7.143-5.977 10.903s-5.978 8.271-10.361 13.158-9.166 9.775-15.941 15.414c-6.774 5.263-13.947 10.527-21.519 15.79s-15.143 9.775-23.114 14.662-16.338 9.775-24.308 14.286l-25.106 14.287c-8.369 4.887-16.738 9.398-25.505 14.286-8.369 4.887-17.136 9.398-25.504 14.286l-25.505 13.91c-8.368 4.511-17.136 8.647-25.504 12.782-8.767 4.136-17.136 7.519-25.903 10.903s-17.933 5.639-25.106 6.391z"/><path d="M684.443 574.702c0-6.391.399-13.158 1.196-19.549l2.391-18.422c.797-6.015 1.992-12.03 3.188-17.669s1.992-11.279 3.188-16.918c.797-5.64 1.992-10.903 2.391-16.166.797-5.263 1.195-10.527 1.195-15.414v-15.038c-.398-4.888-.797-10.151-1.992-15.038s-1.993-10.151-3.587-15.414-3.188-10.527-5.18-15.79l-6.377-16.166c-2.391-5.639-5.18-10.903-7.97-16.918s-5.977-11.279-9.165-17.294c-3.188-5.639-6.775-11.654-10.362-17.669s-6.774-12.031-10.361-18.046-6.774-12.031-10.361-18.422l-10.76-18.045c-3.586-6.016-7.571-11.655-11.556-17.294s-7.97-10.527-12.753-15.414c-4.383-4.512-9.165-8.647-14.346-12.407a67.49 67.49 0 0 0-16.737-7.895c-5.978-1.879-12.354-2.255-19.527-2.631-5.978-.376-11.955 0-17.933.752s-11.557 1.503-17.534 3.007-11.557 3.008-17.136 4.888-11.557 4.135-17.136 6.391-11.158 4.887-16.737 7.519-10.76 5.263-16.339 8.271c-5.18 2.631-10.361 5.639-15.542 8.647l-15.143 8.647-14.745 9.022-13.947 8.647c-4.384 2.632-9.166 5.64-13.55 8.647s-9.165 5.639-13.947 8.647l-14.347 9.023-14.744 9.399-15.144 10.15c-5.18 3.384-10.361 7.895-15.541 10.527-5.978 3.384-13.151 6.767-19.527 10.527s-12.354 7.895-18.332 12.406c-5.977 4.136-11.556 8.647-16.737 13.534s-10.76 9.399-15.542 14.662c-4.782 4.888-9.564 10.151-13.948 15.414s-8.368 10.527-12.353 15.79c-3.587 5.264-7.173 10.903-9.963 16.542s-5.579 11.279-7.572 16.918-3.188 11.655-3.985 17.67-.398 12.406-.398 18.045.797 11.279 1.992 16.918 3.188 10.903 5.579 16.542c2.392 5.263 5.181 10.903 8.768 16.166 3.188 5.263 7.173 10.527 11.158 15.79s8.369 10.527 13.151 15.414c4.782 5.263 9.564 10.151 14.346 15.038s9.963 9.775 15.542 14.662c5.18 4.887 10.361 9.399 15.94 14.286 5.181 4.512 10.76 9.023 16.339 13.535s10.759 9.022 16.339 13.158c5.18 4.135 10.361 8.647 15.541 13.158 4.782 4.512 9.963 9.023 14.347 13.534s9.165 9.023 13.15 13.911c4.384 4.511 8.369 9.398 11.956 13.91l10.759 14.286c3.188 4.887 6.775 9.775 9.564 14.662s5.579 10.903 8.369 16.166 5.579 10.903 8.767 16.166 5.978 10.526 9.166 15.414 6.376 9.775 9.963 14.286 7.173 8.647 11.158 12.406 7.97 7.143 11.955 10.151 8.369 5.639 12.752 7.895 9.166 4.136 13.948 5.639 9.564 2.632 14.745 3.384 10.361 1.128 15.94.752c7.173 0 17.136-3.384 25.903-6.015s17.534-6.016 26.301-9.775 17.933-7.895 26.7-12.407l26.7-13.91c9.166-4.887 17.933-9.775 27.099-15.038l26.7-16.166 26.301-16.918c8.768-5.639 17.136-12.03 24.708-18.045s13.948-12.031 19.527-17.294c5.579-5.639 10.361-10.527 13.947-15.414s6.376-9.023 7.971-13.158 2.391-7.895 2.391-11.279-1.196-6.015-2.391-9.023c-1.595-3.007-3.188-6.015-5.58-9.023s-5.18-6.391-8.368-9.774-6.775-7.143-10.76-10.903l-11.557-12.406c-3.985-4.512-7.571-9.399-10.759-14.286s-5.978-10.527-7.97-16.542c-1.594-6.391-2.79-12.783-2.79-19.926z"/><path d="M485.979 823.206c-5.579 0-10.76-.752-15.94-1.88s-9.564-2.632-14.347-4.511c-4.383-1.88-8.767-4.512-13.15-7.143s-7.97-6.016-11.956-9.775-7.173-7.519-10.759-11.655-6.775-8.647-9.963-13.158-5.977-9.399-9.166-14.286-5.977-9.775-8.767-15.038-5.977-10.151-9.564-15.414l-10.361-15.414c-3.587-5.263-7.173-10.151-11.158-15.414-3.985-4.888-7.97-10.151-12.354-15.038l-13.151-14.662-14.346-14.286c-4.782-4.888-9.963-9.399-15.143-14.287s-10.361-9.398-15.542-13.91-10.361-9.399-15.94-13.91c-5.181-4.511-10.362-9.399-15.542-14.286s-9.963-9.775-14.346-14.662l-13.151-15.038c-4.384-4.888-7.572-10.151-11.158-15.414-3.188-5.264-6.376-10.527-8.768-15.79s-4.383-10.903-5.579-16.166-1.992-10.903-1.992-16.542 0-11.655.797-17.294 2.789-11.278 4.782-16.918 4.782-10.902 7.97-16.166 6.775-10.526 10.76-15.414 8.368-10.15 13.151-14.662 9.962-9.398 15.541-13.91 11.557-8.647 16.738-12.782 10.361-8.647 15.94-12.407c5.181-4.135 10.76-7.895 16.339-11.654l16.339-11.279c5.579-3.759 10.759-7.143 16.338-10.526l15.941-10.151c5.18-3.384 10.361-6.391 15.541-9.399l15.542-9.023 15.143-8.646c4.783-2.632 9.963-5.64 15.144-8.271l15.143-7.895 15.143-7.895c5.181-2.632 10.361-5.264 15.542-7.519s10.76-4.512 16.339-6.767 11.158-4.136 16.737-5.64c5.579-1.88 11.158-3.007 17.136-4.511s11.557-2.256 17.136-2.632c5.977-.752 11.557-.752 17.534-.752 7.173.376 13.549.752 19.527 2.632s11.557 4.511 16.339 7.519c5.18 3.383 9.962 7.143 14.346 11.654s8.369 9.399 12.354 14.287 7.571 10.526 11.158 16.165 7.173 11.279 10.361 17.294 6.376 12.031 9.166 18.046 5.579 12.03 7.97 18.422c2.391 6.015 4.782 12.03 6.775 18.421s3.586 12.031 5.18 18.046 2.79 12.03 3.985 17.67c1.196 6.015 1.993 11.654 2.391 17.293s.797 11.279.797 16.918 0 11.279-.398 16.918-.797 11.278-1.594 16.918-1.594 11.278-2.79 17.294-1.992 11.654-3.188 17.669-2.391 12.031-3.188 18.046c-1.195 6.015-1.992 12.406-2.391 18.797-.797 6.392-.797 13.159-1.195 19.55 0 7.143.797 13.534 2.789 19.549s4.782 11.279 7.97 16.166 6.775 9.399 10.361 13.159a154.03 154.03 0 0 0 11.557 10.902c3.587 3.384 7.572 6.391 10.76 9.399 3.586 3.008 6.376 5.639 8.767 8.647s3.985 6.015 4.384 9.399c.797 3.383.398 7.143-.797 11.278s-3.189 8.647-6.377 13.534-7.173 10.151-12.353 15.79-11.158 11.279-17.933 17.67c-6.775 6.015-14.346 12.407-22.715 18.798s-17.534 13.158-26.7 19.173-19.128 11.655-28.294 16.918-18.73 10.527-28.294 15.038c-9.166 4.511-18.73 8.647-27.896 12.406s-18.331 6.768-27.098 9.023c-7.572 1.128-17.136 3.384-24.309 3.384z"/><path d="M625.853 584.1c0-6.391.399-12.406 1.196-18.797l2.391-18.422c.797-6.015 1.992-12.031 3.188-18.046l3.586-17.669c1.196-6.016 1.993-11.655 3.188-17.67s1.594-11.655 2.391-17.294c.797-6.015 1.196-11.654 1.594-17.67s.399-11.654.399-17.669-.399-12.031-.797-17.67c-.399-6.015-1.196-12.031-2.391-18.046l-3.587-18.045c-1.594-6.016-3.188-12.031-5.18-17.67-1.993-6.015-3.985-11.655-6.775-17.294-2.391-5.639-5.181-11.278-7.97-16.542s-5.978-10.15-9.564-15.038-7.174-9.023-11.557-12.782c-3.985-3.76-8.369-7.519-13.549-10.151s-9.963-5.263-15.542-6.767-11.955-2.632-18.331-2.632c-5.58 0-11.557.376-17.136.752-5.579.752-11.158 1.504-17.136 2.632-5.579 1.128-11.158 2.632-16.737 4.135s-11.159 3.384-16.339 5.264-10.76 4.135-16.339 6.391-10.76 4.511-16.339 7.143-10.759 4.887-16.339 7.895c-5.579 2.632-10.759 5.263-16.338 8.271l-16.339 8.647c-5.579 3.007-10.76 6.015-16.339 9.399-5.579 3.007-11.158 6.391-16.737 9.774l-16.738 10.151c-5.579 3.384-11.158 7.143-16.737 10.903l-16.339 11.278c-5.579 3.76-10.759 7.895-15.94 12.031s-10.361 8.27-15.143 12.782-9.564 8.647-14.346 13.534-8.768 9.399-12.753 13.91c-3.985 4.888-7.571 9.775-11.158 14.662-3.188 4.888-6.376 10.151-8.767 15.414s-4.384 10.527-5.579 15.79-1.993 10.527-1.993 16.166.797 10.903 1.993 16.166 3.188 10.527 5.579 15.79 5.181 10.151 8.767 15.414 7.173 10.151 11.158 15.038 8.369 9.775 12.753 14.662 9.165 9.775 13.947 14.662l14.745 14.663 14.745 14.662 14.346 15.038c4.782 4.887 9.564 10.15 13.948 15.038s8.767 10.15 13.151 15.414 8.368 10.526 12.353 15.79 7.97 10.526 11.557 15.79l10.76 15.79c3.586 5.263 6.774 10.15 9.962 15.414 3.188 4.887 6.377 9.774 9.963 14.662 3.188 4.887 6.376 9.399 9.963 13.534 3.188 4.511 6.774 8.647 10.361 12.406a143.6 143.6 0 0 0 11.158 10.527c3.985 3.008 7.97 6.015 12.354 8.271s9.166 4.135 13.948 5.263 10.361 1.88 15.94 1.88c7.97 0 16.339-1.128 25.504-3.383s18.332-5.64 27.896-9.775 19.128-9.023 28.692-14.286 19.129-11.279 27.896-17.294c9.166-6.015 17.534-12.407 25.504-18.422 7.971-6.391 15.542-12.406 21.918-18.797 6.376-6.016 12.354-12.031 16.738-17.67 4.782-5.639 8.368-10.903 11.158-15.79s4.383-9.399 5.18-13.534.399-7.895-.797-11.655c-1.195-3.383-3.188-6.767-5.579-10.15s-5.579-6.392-9.165-9.399-7.174-6.391-11.159-10.151-7.571-7.519-10.759-12.03-6.376-9.399-8.369-15.038c-1.992-5.264-3.188-12.031-3.188-19.55z"/><path d="M483.19 773.58c-5.579 0-10.759-1.128-15.542-2.256-4.782-1.503-9.564-3.383-13.947-5.639s-8.369-5.263-12.354-8.271-7.97-6.767-11.557-10.526-7.173-8.271-10.759-12.407l-10.76-13.91-10.76-14.662c-3.586-4.887-7.571-10.151-11.158-15.414-3.985-5.263-7.572-10.527-11.557-15.79s-7.97-10.527-12.353-15.79-8.369-10.527-13.151-15.79c-4.384-5.263-8.767-10.527-13.549-15.414-4.384-5.263-9.166-10.151-13.55-15.414s-9.165-10.151-13.549-15.414l-13.151-15.038c-4.383-4.887-8.368-10.151-11.955-15.038-3.985-4.887-7.173-10.151-10.361-15.038s-5.978-10.151-8.369-15.414-4.383-10.151-5.579-15.414-1.992-10.151-2.391-15.414c0-5.263.797-10.151 1.993-15.414 1.195-4.887 3.188-10.151 5.579-15.038s5.18-9.775 8.368-14.662 6.775-9.399 10.76-13.911 8.369-9.022 12.752-13.534 9.166-8.647 14.347-12.782c4.782-4.136 9.962-8.271 15.541-12.031 5.181-4.135 10.76-7.895 15.941-11.654 5.579-3.76 11.158-7.519 16.737-10.903s11.158-7.143 16.737-10.526 11.158-6.767 17.136-9.775c5.579-3.008 11.158-6.391 17.136-9.399 5.579-3.007 11.158-6.015 17.136-8.647l17.136-7.895 16.737-7.143c5.579-2.255 11.158-4.511 16.737-6.391s11.158-3.759 16.737-5.263 11.159-3.008 17.136-4.136c5.579-1.128 11.158-1.879 17.136-2.631 5.579-.752 11.158-.752 17.136-.752 6.775 0 12.752.752 17.933 2.631s10.361 4.136 14.744 6.768c4.384 3.007 8.369 6.391 12.354 10.526 3.587 4.136 6.775 8.271 9.963 13.158 2.789 4.888 5.579 9.775 7.97 15.414 2.391 5.264 4.384 10.903 5.978 16.918 1.594 5.64 3.188 11.655 3.985 17.67a137.42 137.42 0 0 1 2.391 18.422l1.195 18.421c.399 6.015 0 12.407-.398 18.798s-.797 12.406-1.594 18.421-1.594 12.407-2.79 18.422-1.992 12.406-3.188 18.422l-3.587 18.421c-1.195 6.016-2.39 12.407-3.187 18.422s-1.993 12.406-2.392 18.797c-.797 6.392-1.195 12.783-1.195 18.798.398 7.143 1.992 13.534 3.985 19.174s5.181 10.526 7.97 15.038c3.188 4.511 6.376 8.646 9.963 12.406s6.376 7.519 8.767 10.903c2.391 3.759 4.782 7.143 5.978 11.278s1.992 7.895 1.195 12.407-1.992 9.022-4.383 13.91-5.978 10.15-10.362 15.79-9.962 11.278-16.339 17.293-13.549 12.031-21.12 17.67c-7.572 6.015-16.339 11.655-24.708 16.918s-17.933 10.527-27.098 14.662-18.332 7.895-27.497 10.527-19.129 4.511-27.099 4.135z"/><path d="M583.216 573.95c-.399-5.64.399-12.407 1.196-18.798l2.391-18.797c1.195-6.392 1.992-12.783 3.188-19.174l3.586-19.173c1.196-6.392 1.993-12.783 3.188-19.174l2.391-19.173 1.196-19.174c0-6.391 0-12.406-.399-18.798-.398-6.015-1.195-12.406-1.992-18.045-.797-6.015-2.391-11.655-3.985-17.294s-3.587-10.903-5.978-15.79-5.18-9.399-8.369-13.534-6.774-7.895-11.158-10.903-8.767-5.263-14.346-7.143c-5.181-1.504-11.158-2.631-17.933-2.631-5.977 0-11.557.375-17.534 1.127s-11.955 1.504-17.933 3.008c-5.978 1.128-11.955 2.632-17.933 4.511s-11.955 3.76-17.933 6.016l-18.331 7.143c-5.978 2.631-12.354 5.263-18.331 8.271l-18.332 9.022c-6.376 3.008-11.955 6.392-17.932 9.775L374 395.749l-17.535 11.278c-5.977 3.76-11.158 7.895-16.737 12.031-5.18 4.135-10.361 8.271-15.542 12.782-4.782 4.512-9.564 8.647-13.947 13.534-4.384 4.512-8.369 9.399-11.956 13.911-3.586 4.887-6.774 9.774-9.165 14.662s-4.782 10.15-5.978 15.038c-1.594 5.263-2.391 10.15-1.992 15.414a49.39 49.39 0 0 0 2.391 15.038c1.195 4.887 3.188 10.151 5.18 15.038 2.391 4.887 4.782 10.151 7.97 15.414s6.376 10.151 9.963 15.414 7.173 10.151 11.158 15.414 7.97 10.151 12.354 15.414 8.369 10.527 12.752 15.414c4.384 5.263 8.369 10.527 12.752 15.79s8.369 10.527 12.753 15.79c3.985 5.263 8.368 10.526 12.353 15.414l11.956 15.414c3.985 4.887 7.97 9.775 11.556 14.662 3.985 4.887 7.572 9.399 11.557 13.91s7.572 8.647 11.557 12.407 7.97 7.519 11.955 10.526c3.985 3.384 8.369 6.015 12.752 8.271s9.166 4.136 13.948 5.639 9.963 2.256 15.143 2.256c7.97.376 17.534-2.256 26.302-4.887s17.534-6.391 26.301-10.527 16.737-9.399 24.309-14.662 14.745-10.903 21.121-16.542 11.557-11.278 15.94-16.542 7.572-10.902 9.963-15.79c2.391-5.263 3.586-9.774 3.985-14.662.398-4.511-.399-9.023-1.594-13.158s-3.188-8.647-5.579-12.782-5.181-8.647-7.572-13.535c-2.789-4.887-5.18-9.774-7.173-15.79a63.32 63.32 0 0 1-3.985-18.797z"/><path d="M478.017 707.789c-5.579 0-10.76-1.128-15.94-2.632s-9.963-3.384-14.745-6.015-9.166-5.64-13.549-9.023-8.767-7.519-13.151-11.655-8.369-8.646-12.752-13.534-8.369-9.775-12.752-14.662-8.369-10.151-12.753-15.414-8.368-10.527-12.752-16.166c-4.383-5.263-8.369-10.902-12.752-16.542s-8.369-10.902-12.354-16.542-7.97-10.902-11.557-16.541-7.173-10.903-9.962-16.166-5.978-10.903-7.97-16.166c-2.391-5.264-4.384-10.903-5.579-16.166a108.03 108.03 0 0 1-2.392-15.79c0-5.263.797-10.151 1.993-15.038 1.594-4.888 3.587-9.775 5.978-14.662 2.789-4.888 5.579-9.399 9.165-13.91s7.572-9.023 11.955-13.535 9.166-8.647 13.948-12.782 9.963-8.271 15.542-12.031c5.181-3.759 10.76-7.519 16.737-11.278 5.579-3.76 11.557-7.143 17.535-10.527s11.955-6.391 17.932-9.774 11.956-6.016 17.933-8.647 11.956-5.264 18.332-7.519 11.955-4.512 17.932-6.016c5.978-1.879 11.956-3.383 17.933-4.887 5.978-1.128 11.956-2.256 17.535-3.008 5.977-.751 11.556-1.127 17.135-1.127 6.377 0 12.354 1.127 17.535 2.631 5.18 1.88 9.564 4.136 13.549 7.519s7.173 6.767 9.963 11.279a57.11 57.11 0 0 1 6.774 13.91c1.594 4.887 3.188 10.527 4.384 16.166s1.594 11.654 1.992 17.67.399 12.406.399 18.421-.797 12.783-1.196 19.174-1.594 12.782-2.391 19.549c-.797 6.391-1.992 12.783-2.789 19.55-1.196 6.391-1.993 12.782-3.188 19.173l-2.391 19.174c-.797 6.391-1.196 12.782-.797 18.797.398 6.767 1.195 13.159 2.789 18.798s3.188 10.902 4.782 15.79l4.782 14.286c1.594 4.887 1.993 9.023 2.391 13.534 0 4.512-.398 9.023-1.594 13.534s-3.586 9.399-6.376 14.287c-3.188 4.887-6.774 9.774-11.556 14.662s-10.362 9.775-16.339 13.91c-5.978 4.511-13.151 8.647-20.324 12.406s-14.745 6.768-22.715 9.023-16.737 4.512-24.309 4.512z"/><path d="M550.936 551.017c0-6.016.398-12.407.797-18.422s1.195-12.782 1.992-19.173l2.391-19.174c.797-6.391 1.594-12.782 1.993-19.174s.797-12.782.797-18.797 0-12.031-.797-18.046-1.594-11.278-2.79-16.542c-1.594-5.263-3.188-10.15-5.579-14.662s-5.18-8.271-8.767-11.654-7.572-6.015-12.354-7.519-10.361-2.632-16.737-2.632c-5.978 0-11.955.376-17.933 1.128s-12.354 1.88-18.73 3.759-12.752 3.384-19.128 5.64-12.752 4.887-19.128 7.519-12.753 5.639-18.73 9.023c-6.376 3.383-12.354 6.767-18.332 10.526s-11.556 7.519-17.135 11.655-10.76 8.271-15.542 12.406c-4.782 4.512-9.564 9.023-13.549 13.534s-7.572 9.399-10.76 14.287-5.579 9.774-7.173 15.038-2.391 10.15-2.391 15.79c0 4.887.797 10.15 1.992 15.414s2.79 10.526 5.181 15.789c1.992 5.264 4.782 10.527 7.571 16.166 2.79 5.264 5.978 10.903 9.565 16.166l10.759 16.166c3.587 5.264 7.572 10.527 11.557 15.79s7.97 10.151 12.354 15.414 8.368 9.775 12.752 14.286 8.369 9.023 12.752 13.159 8.767 7.895 13.151 11.278 9.166 6.391 13.948 9.023 9.564 4.511 14.745 5.639 10.361 2.256 15.541 2.256c7.97 0 15.542-1.504 23.114-3.384 7.173-2.255 14.346-5.263 20.722-8.646s11.955-7.519 17.136-12.031c4.782-4.511 9.166-9.023 12.354-13.91s5.579-9.775 7.173-14.662 1.992-9.775 2.391-15.038-.399-10.151-1.196-15.79l-2.789-17.294c-2.391-6.391-3.188-13.158-3.188-20.301z"/><path d="M470.046 634.102c-5.579 0-11.158-.751-16.338-2.255s-10.362-3.76-15.542-6.767-9.963-6.392-14.745-10.151-9.166-8.271-13.948-12.782-8.767-9.399-13.15-14.663c-3.986-5.263-8.369-10.526-11.956-15.789s-7.173-10.903-10.361-16.542-5.977-11.279-8.369-16.918-4.383-11.279-5.579-16.918-1.992-10.903-1.992-16.542.797-10.151 2.391-15.038 3.985-9.775 7.173-14.286 6.775-9.023 10.76-13.534 8.767-8.647 13.549-12.407c4.782-4.135 10.361-7.895 15.542-11.278s11.158-6.767 17.136-9.775 11.955-5.639 17.932-8.271 11.956-4.511 17.933-6.391 11.955-3.008 17.933-4.135 11.557-1.504 17.136-1.504c6.376 0 11.557 1.128 16.339 3.007s8.368 4.512 11.556 8.271c3.188 3.384 5.579 7.519 7.572 12.031a60.42 60.42 0 0 1 4.384 15.038c1.195 5.263 1.594 11.278 1.992 16.918s.399 12.03 0 18.045-.398 12.407-1.195 18.798l-1.196 18.797c-.398 6.016-.398 12.031-.797 18.046 0 7.895 0 15.038.399 21.429s.398 12.783-.399 18.798c-.398 6.015-1.594 11.278-3.188 16.542s-4.384 10.15-7.97 15.038-7.97 9.023-13.549 12.406c-5.579 3.76-11.557 6.767-18.332 8.647s-12.752 4.135-21.121 4.135z"/><path d="M520.258 525.452c.398-7.143 0-13.534 0-20.301s0-13.91-.398-20.677-1.196-13.159-2.392-19.174-3.188-11.654-5.977-16.542-6.376-8.647-11.158-11.278-10.362-4.136-17.535-4.136c-5.977 0-12.353.752-18.729 1.88s-12.753 3.384-19.129 5.639-12.354 5.264-18.331 8.647-11.557 7.143-16.737 11.279-9.963 8.647-13.55 13.158-7.173 9.775-9.165 15.038c-2.391 5.263-3.188 10.527-3.587 16.166 0 5.263.399 10.527 1.993 15.79s3.188 10.527 5.579 15.79 5.18 10.526 8.368 15.414 6.775 9.775 10.76 14.286 7.97 8.647 12.354 12.782c4.383 3.76 8.767 7.143 13.549 10.151s9.564 4.887 14.745 6.391 10.361 2.256 15.542 2.256c7.173 0 13.15-.376 18.729-2.256 5.579-1.504 10.362-4.135 14.745-7.519s7.572-7.143 10.361-11.278c2.79-4.512 4.782-9.023 5.978-14.287 1.594-5.263 2.391-10.902 2.789-16.917.797-6.392.797-13.159 1.196-20.302z"/><path d="M463.264 563.423c-5.977 0-11.557-.752-16.737-3.008s-10.361-5.263-14.745-9.023-8.369-8.271-11.955-13.534c-3.587-4.887-5.978-10.151-7.97-15.79s-2.79-11.278-2.79-16.542 1.196-10.151 3.985-15.038 5.978-9.023 9.963-13.158c4.384-4.136 9.166-7.519 14.346-10.527s10.76-5.263 16.738-6.767 11.556-2.632 17.135-2.632c7.173 0 12.753 1.88 17.136 5.264s7.572 8.271 9.564 13.91c2.391 5.639 3.587 12.03 4.384 18.422.797 6.767 1.594 13.158 1.195 19.925-.398 7.143-1.195 13.91-2.789 19.549-1.594 6.016-3.985 11.279-7.173 15.414s-7.173 7.895-12.354 10.151c-5.579 2.632-10.76 3.008-17.933 3.384z"/><path d="M483.595 508.158c.398-7.143-1.594-13.158-4.782-18.421s-8.369-8.271-15.542-8.271c-4.782 0-9.564 1.128-13.549 3.383-4.384 2.256-7.97 5.264-10.76 8.647s-3.985 7.519-4.384 12.031c0 4.511 1.196 9.023 3.587 13.158s5.579 7.519 9.564 9.775 8.369 3.759 13.151 3.759c7.173 0 12.354-2.255 15.94-6.391 4.384-4.511 6.376-10.902 6.775-17.67z"/>
    </g>
    <g id="about-line">
    <path d="M119.18 1169.55c-31.871-16.74-113.615-49.32-117.994-92.22-4.136-39.45 61.795-88.317 85.637-111.716 68.849-68.133 126.022-118.143 71.282-209.674-23.355-38.998-71.526-82.814-79.067-128.695-8.028-50.009 54.739-49.551 92.692-50.468 39.413-.688 115.318 17.205 149.864-6.653 26.275-18.352 12.164-69.738 9.732-95.202-6.083-66.985-19.95-133.741-31.628-200.038C294.832 247.126 237.173 9.465 285.1 1.207c23.842-4.129 62.525 54.827 72.256 66.985 39.656 50.469 75.419 103.69 111.911 155.994 49.387 70.656 100.721 167.922 175.166 218.62 43.548 29.593 94.882 2.523 139.16-15.141 67.39-27.069 138.186-72.949 210.928-84.878 65.929-10.782 46.229 41.292 28.219 80.29-16.05 34.64-86.364 122.042-68.848 161.958 10.218 23.629 70.798 28.446 91.718 32.346 64.23 12.388 129.43 20.646 193.9 30.052 30.41 4.358 265.42 24.316 263.48 67.444-1.95 42.439-161.06 74.556-193.9 85.108-66.66 21.335-173.71 40.604-222.36 94.055-36.25 39.687 13.62 105.755 34.06 142 44.03 78.46 105.58 155.53 135.26 240.18 26.76 76.4-42.09 73.64-102.91 58.96-44.03-10.55-86.61-25.23-129.67-38.31-25.786-7.8-72.984-28.45-100.718-19.96-35.033 10.78-61.551 76.16-78.825 103.23-14.354 22.71-49.143 87.41-87.096 83.05-35.52-4.13-59.605-62.63-76.148-86.95-18.247-27.07-39.899-64-73.229-76.85-63.011-23.85-111.182 88.55-135.51 127.32-77.122 123.42-131.131 273.68-227.229 385.17-29.438 34.18-36.736 31.66-48.9 2.29-18.247-44.5 2.432-117.22 8.758-164.25 10.704-81.67 25.545-162.88 37.709-244.54 6.569-43.13 34.06-117 11.191-158.29-18.003-31.43-102.91-60.79-134.293-77.54z M834.926 1354.45c19.706-27.99 42.818-81.21 74.445-99.56 46.468-27.07 138.189 15.14 188.789 16.75 50.6 1.83 81.26-11.93 71.28-62.17-14.11-72.49-71.28-141.31-102.18-208.53-20.43-44.503-34.3-76.848 9.25-110.8 51.09-39.916 124.8-59.415 185.38-80.52 27.25-9.405 192.68-48.174 190.25-86.485-2.68-43.586-213.85-59.185-243.04-63.773-58.63-8.947-117.75-16.747-176.14-27.758-20.92-3.9-83.447-9.635-98.044-28.675-21.652-28.446 25.545-101.625 33.33-130.53 33.814-123.189-160.568-19.041-214.334-2.294-49.387 15.37-76.392 17.434-115.804-16.747-70.067-60.791-121.643-144.982-174.679-218.62-17.03-23.628-121.886-197.056-161.055-181.686-44.522 17.664 8.271 221.602 13.137 250.966 9.488 56.203 19.463 112.636 26.518 169.069 3.406 27.528 17.517 86.255-2.919 111.26-20.193 24.776-92.935 18.123-122.373 22.252-119.696 17.205-42.818 97.496-15.813 164.252 31.627 78.226-37.223 134.2-89.286 188.569-21.896 22.94-77.852 67.21-76.635 102.31 1.46 42.67 78.824 76.39 109.722 93.14 32.357 17.43 111.424 41.98 132.833 74.56 14.354 22.02 3.163 73.4 1.46 96.57-4.622 61.94-13.137 123.42-17.516 185.36-1.947 28.68-16.544 172.74 47.44 113.1 83.447-77.54 127.239-200.27 193.899-290.66 26.761-36.47 52.55-79.14 102.423-54.13 32.6 16.51 54.739 47.02 75.175 75.24 15.084 20.87 42.332 76.16 75.905 75.7 32.844-.69 63.984-55.05 78.582-76.16z M176.838 1136.98c-28.951-16.06-91.718-45.42-98.53-82.82-5.839-33.49 35.033-69.965 55.225-92.676 43.062-48.633 111.912-107.819 106.56-177.327-5.109-66.068-65.931-120.895 29.924-150.718 24.815-7.799 68.606-7.799 85.636-29.822 14.597-18.811 4.623-78.456 2.92-95.661-5.109-53.909-14.354-107.819-22.383-161.27-4.379-29.134-46.71-201.873-6.082-218.62 36.25-14.911 115.804 111.49 132.591 133.283 52.306 68.132 102.18 140.853 165.191 200.497 29.194 27.758 58.145 50.469 101.207 46.569 53.036-4.588 188.789-78.685 186.843 16.517-.487 27.299-21.409 69.509.73 92.449 17.516 18.123 69.336 22.252 93.42 26.84 51.33 10.094 103.64 17.664 155.22 26.152 51.82 8.488 105.1 16.058 155.46 30.74 9.49 2.753 49.63 12.846 54.25 26.84 10.7 32.346-123.59 72.032-140.86 78.685-71.77 27.987-230.15 68.132-214.34 164.711 10.22 61.251 141.6 212.651 20.44 236.971-43.793 8.72-95.369-7.8-132.349 19.96-30.41 22.94-52.306 62.63-75.418 91.07-16.3 19.96-50.117 67.9-83.69 66.07-26.762-1.61-48.414-37.16-63.255-54.14-36.979-41.98-95.611-111.26-157.405-75.93-67.147 38.31-92.206 136.95-150.351 187.19-58.145 50.47-61.065-29.82-63.254-72.26-2.433-47.03 16.3-129.61-17.273-167.01-26.275-29.59-85.394-46.79-120.427-66.29z M833.953 1279.44c26.031-27.53 51.333-60.57 81.744-84.88 25.301-20.19 54.739-23.4 82.473-39.23 81.99-47.26-16.056-133.97-7.785-195.91 10.945-82.126 139.155-124.795 204.115-155.535 22.87-10.782 104.86-37.851 91.72-70.656-13.87-34.64-144.75-46.11-172.73-51.157-62.04-11.24-155.948-13.075-210.444-47.027-27.248-16.976-20.68-40.604-30.898-66.527-25.058-64.691-102.179-21.105-154.729-33.034C612.076 510.938 532.522 379.95 470.97 307.459c-16.3-19.27-80.77-112.407-112.397-90.614-35.277 24.546-3.163 150.029.729 181.228 7.056 57.579 36.493 157.828 14.598 214.72-11.192 28.675-40.872 32.805-66.174 47.716-59.362 35.098-27.978 79.143-39.412 132.365-13.381 61.25-62.281 111.948-100.477 160.581-18.003 23.17-47.928 54.595-41.116 85.565 7.786 35.79 57.659 61.71 86.124 78.23 32.6 18.81 74.202 33.95 104.612 56.89 33.087 25.01 31.384 58.27 41.845 95.66 35.277 125.48 121.886-52.99 181.005-52.99 57.659-.23 110.208 47.49 148.404 81.67 18.976 16.74 37.223 37.39 64.957 36.01 30.411-2.29 62.038-36.01 80.285-55.05z M250.067 1095.68c-65.444-37.85-93.665-77.07-53.523-142.683 31.384-51.387 67.147-98.414 91.962-153.471 19.706-44.045 18.977-86.255 56.929-121.124 17.517-16.288 35.52-25.693 43.062-48.633 18.003-53.451-.244-123.648-4.866-178.475-2.19-24.776-22.382-126.86 7.299-146.818 28.951-19.499 79.797 43.357 95.854 59.645 68.607 69.05 131.861 139.935 220.66 186.504 44.278 23.17 98.531 15.829 132.591 54.139 14.84 16.746 22.139 33.034 43.061 44.504 49.387 27.299 121.404 32.346 175.414 43.816 26.03 5.505 122.85 16.517 136.72 45.192 13.63 28.216-27.73 48.863-48.66 62.397-63.01 40.605-145.72 78.456-169.809 153.241-17.516 53.676 34.059 104.376-.973 156.226-31.87 47.02-95.368 91.99-139.159 127.54-52.307 42.44-88.07 58.27-149.134 21.8-45.738-27.53-87.097-49.55-140.376-62.17-39.169-9.18-47.441 1.38-83.69 12.85-25.059 7.8-35.763 11.93-58.146-2.99-21.895-14.45-33.086-40.14-56.685-55.74-31.141-21.11-66.174-37.16-98.531-55.75z M838.332 1196.62c44.278-28.9 104.369-65.84 123.102-116.99 15.814-43.13-7.785-87.635 8.029-131.68 22.139-62.168 79.067-101.167 124.077-147.506 62.52-64.691-27.98-82.126-86.85-96.578-75.667-18.811-131.622-33.493-193.903-77.08-36.25-25.463-79.798-40.374-117.264-64.92-69.823-45.651-131.861-99.331-198.034-149.112-17.76-13.534-53.037-43.816-77.365-27.299-24.815 16.976-13.624 94.744-12.894 117.225 1.703 44.275 12.894 101.625-1.947 145.212-7.298 21.793-24.815 35.327-38.925 53.221-25.302 32.575-41.116 71.115-60.822 106.672-25.545 46.11-56.929 92.449-76.878 140.853-24.328 58.952 4.866 94.052 57.902 126.632 43.548 26.84 89.043 57.35 137.456 75.93 40.872 15.83 86.853 18.58 129.672 29.59 50.116 12.62 96.584 33.95 145.971 48.41 53.766 15.6 94.638-3.9 138.673-32.58z M319.16 1056.69c-105.829-69.742-52.063-154.85.973-241.564 20.923-33.952 41.846-68.362 66.174-100.249 41.602-54.139 40.142-101.166 41.602-168.611.973-49.321-1.946-125.253 71.039-99.101 68.85 24.775 126.752 84.42 184.168 126.171 86.852 63.085 174.679 111.489 278.075 141.77 56.689 16.517 118.239 33.493 84.659 98.414-23.59 45.651-66.169 80.75-84.416 129.612-14.84 39.916.487 77.308-8.758 116.078-11.191 47.03-76.635 80.06-116.291 101.63-97.8 53.45-171.516 33.49-276.859 6.19-91.961-24.09-162.028-58.73-240.366-110.34z M828.844 1133.31c37.952-18.36 93.178-43.82 105.342-86.72 9.975-35.1 2.433-71.571 16.057-107.128 17.03-44.504 65.447-84.191 74.207-130.301 9.97-51.845-54.501-69.05-95.616-82.585-97.071-32.116-174.679-76.161-255.693-137.87-44.035-33.722-111.425-109.654-170.3-116.766-57.659-7.111-55.712 67.444-58.389 105.525-3.649 53.451-1.946 103.46-37.952 147.047-25.788 31.428-51.09 62.856-72.986 96.808-22.625 34.869-55.469 81.896-55.956 124.565s33.817 72.265 68.12 95.665c70.796 48.4 133.321 90.84 218.471 113.09 41.602 11.01 88.799 25.01 132.591 22.48 45.98-2.75 92.205-24.54 132.104-43.81z M367.088 1029.39c-82.474-61.023-71.526-125.256-20.436-203.253 20.436-31.199 45.251-57.35 69.336-85.796 34.06-40.375 35.52-90.844 41.845-139.936 4.866-37.163 7.785-98.643 60.821-90.384 50.604 7.8 109.479 70.197 147.918 100.019 77.365 59.645 147.431 96.12 239.15 129.842 35.763 13.076 92.692 31.887 87.339 77.538-4.865 41.292-45.007 80.749-60.578 119.748-12.894 32.575-9.488 71.802-24.085 103.002-15.814 33.95-62.038 57.81-94.395 73.64-83.933 40.83-154 54.14-246.935 29.59-77.608-20.88-137.456-67.9-199.98-114.01z M794.297 1095.23c32.114-16.52 70.309-40.15 86.853-72.95 13.381-26.615 15.57-58.96 26.518-86.718 12.651-32.346 47.441-75.244 45.494-110.572-1.946-37.393-45.007-56.204-75.418-69.509-78.825-34.869-145.485-66.526-215.308-118.83-31.384-23.399-81.257-73.179-123.346-79.603-45.981-7.111-60.334 37.393-68.363 72.491-9.245 40.834-17.03 85.109-44.034 119.978-21.41 27.757-48.171 49.551-67.147 79.602-45.738 72.491-39.169 131.218 28.464 188.341 53.523 44.96 109.722 95.43 180.518 114.01 83.447 21.79 152.783 1.15 225.769-36.24z M409.663 1005.3c-54.253-51.157-72.743-110.113-35.034-174.575 15.814-27.069 38.44-47.027 58.389-70.656 24.085-28.905 37.953-64.003 52.063-97.266 38.926-91.761 117.75-35.328 176.869 5.735 59.848 41.521 120.669 70.197 185.383 103.919 82.961 43.357 55.469 92.22 28.951 162.187-24.328 64.233-37.709 106.446-104.856 142.686-62.281 33.5-129.184 60.11-201.684 41.07-64.957-16.75-114.1-69.74-160.081-113.1z M747.1 1059.9c77.851-47.95 166.65-204.629 68.363-269.55-48.171-31.657-102.91-57.58-153.027-87.631-55.469-33.264-115.56-65.151-163.244-4.818-33.574 42.44-83.691 86.485-107.533 134.201-29.924 60.103.487 114.701 39.899 161.269 34.79 41.059 82.231 95.199 139.403 110.109 60.091 15.6 126.508-13.07 176.139-43.58z M452.724 981.213c-29.924-39.687-62.281-95.431-41.845-147.276 15.57-39.687 68.85-76.621 102.18-101.626 78.338-59.644 209.712 24.547 270.777 75.703 78.824 66.068 8.758 189.257-60.578 234.446-40.629 26.38-99.504 56.67-150.837 43.59-50.847-13.31-91.719-67.67-119.697-104.837z M701.605 1024.11c62.281-42.897 115.318-135.576 52.793-199.808-52.55-53.91-151.81-96.12-227.472-60.562-31.627 14.911-81.014 39.916-93.178 74.326-15.084 42.21 18.733 98.872 40.385 130.989 21.896 32.345 58.875 84.875 102.91 95.205 41.845 10.09 92.448-18.13 124.562-40.15z M495.299 957.126c-44.765-70.427-51.09-137.871 44.765-166.776 68.849-20.875 143.781-9.864 188.303 48.634 47.197 61.938 14.597 124.565-44.765 166.316-81.987 57.81-142.322 24.32-188.303-48.174z M669.735 984.195c44.764-31.657 71.769-85.108 36.006-132.594-34.546-45.651-97.801-54.598-151.81-39.687-73.472 20.417-66.174 84.879-36.006 132.595 32.357 51.386 90.258 83.501 151.81 39.686z M545.659 930.286c-19.463-31.428-17.273-79.144 25.059-92.449 35.276-11.012 85.393-2.065 106.802 28.216s6.569 72.72-25.059 92.449c-37.465 23.17-85.149 6.653-106.802-28.216z M632.755 929.139c18.49-10.323 24.086-31.428 12.895-47.487s-35.52-22.481-54.983-14.681-25.302 28.904-12.894 47.486c12.164 18.811 36.493 25.234 54.982 14.682z"/>
    </g>
  </defs>
</svg>