<svg width="123" height="27" viewBox="0 0 123 27" fill="none" xmlns="http://www.w3.org/2000/svg">
<path d="M47.5438 14.8938H42.5125V12.2688H50.5187V19.7938L50.4312 19.8813C48.8125 21.15 45.8813 22.0688 43.475 22.0688C38.2688 22.0688 34.5938 18.5688 34.5938 13.4938C34.5938 10.9125 35.5125 8.725 37.175 7.15C38.75 5.6625 40.9812 4.875 43.4312 4.875C45.8375 4.875 47.9375 5.61875 49.775 7.19375L49.9062 7.325L48.4625 9.64375L48.2437 9.46875C46.8437 8.24375 45.3125 7.675 43.4312 7.675C39.9312 7.675 37.525 10.0375 37.525 13.4938C37.525 16.95 39.9312 19.2688 43.5187 19.2688C44.9625 19.2688 46.4062 18.875 47.5 18.2188V14.8938H47.5438Z" fill="white"/>
<path d="M67.1001 19.1375V21.8062H54.0188V5.1375H67.1001V7.80625H56.8625V11.875H65.3501V14.5437H56.8625V19.1812H67.1001V19.1375Z" fill="white"/>
<path d="M85.9562 5.1375L79.4374 12.925L72.9624 5.1375H70.3374V21.8062H73.2687V9.95L79.0437 16.95H79.7437L85.5187 9.95V21.8062H88.4499V5.1375H85.9562Z" fill="white"/>
<path d="M95.7999 21.8062H92.8687V5.1375H95.7999V21.8062Z" fill="white"/>
<path d="M102.756 5.18125L102.669 5.09375H100.131V21.7625H103.063V9.95L112.994 21.7188L113.081 21.8063H115.619V5.1375H112.688V17.0375L102.756 5.18125Z" fill="white"/>
<path d="M122.881 21.8062H119.95V5.1375H122.881V21.8062Z" fill="white"/>
<path d="M17.4438 0.5C12.8063 0.5 8.86875 4.0875 8.3875 8.59375C3.8375 9.075 0.25 13.0125 0.25 17.6938C0.25 22.6812 4.31875 26.75 9.30625 26.75C13.9438 26.75 17.8813 23.1625 18.3625 18.6562C22.9125 18.175 26.5 14.2375 26.5 9.55625C26.5 4.56875 22.4313 0.5 17.4438 0.5ZM24.3562 10.65C23.875 13.7563 21.5125 16.1187 18.4062 16.6V10.65H24.3562ZM2.39375 16.6C2.875 13.4937 5.2375 11.1313 8.34375 10.65V16.6H2.39375ZM16.35 18.6562C15.8688 22.1125 12.8938 24.6062 9.4375 24.6062C5.98125 24.6062 3.00625 22.1125 2.525 18.6562H16.35ZM16.35 10.65V16.6H10.4V10.65H16.35ZM24.3562 8.59375H10.4C10.8813 5.1375 13.8562 2.64375 17.3125 2.64375C20.9 2.5125 23.875 5.1375 24.3562 8.59375Z" fill="white"/>
</svg>
